<svg width="200" height="200" viewBox="0 0 200 200" fill="none" xmlns="http://www.w3.org/2000/svg">
<mask id="mask0_139_152" style="mask-type:alpha" maskUnits="userSpaceOnUse" x="0" y="0" width="200" height="200">
<rect width="200" height="200" fill="#D9D9D9"/>
</mask>
<g mask="url(#mask0_139_152)">
<path d="M50 183.333V147.5C42.0833 140.278 35.9375 131.84 31.5625 122.187C27.1875 112.535 25 102.361 25 91.6666C25 70.8333 32.2917 53.125 46.875 38.5416C61.4583 23.9583 79.1667 16.6666 100 16.6666C117.361 16.6666 132.743 21.7708 146.146 31.9791C159.549 42.1875 168.264 55.4861 172.292 71.875L183.125 114.583C183.819 117.222 183.333 119.618 181.667 121.771C180 123.924 177.778 125 175 125H158.333V150C158.333 154.583 156.701 158.507 153.438 161.771C150.174 165.035 146.25 166.667 141.667 166.667H125V183.333H108.333V150H141.667V108.333H164.167L156.25 76.0416C153.056 63.4027 146.25 53.125 135.833 45.2083C125.417 37.2916 113.472 33.3333 100 33.3333C83.8889 33.3333 70.1389 38.9583 58.75 50.2083C47.3611 61.4583 41.6667 75.1389 41.6667 91.25C41.6667 99.5833 43.3681 107.5 46.7708 115C50.1736 122.5 55 129.167 61.25 135L66.6667 140V183.333H50ZM100 133.333C102.361 133.333 104.34 132.535 105.938 130.937C107.535 129.34 108.333 127.361 108.333 125C108.333 122.639 107.535 120.66 105.938 119.062C104.34 117.465 102.361 116.667 100 116.667C97.6389 116.667 95.6597 117.465 94.0625 119.062C92.4653 120.66 91.6667 122.639 91.6667 125C91.6667 127.361 92.4653 129.34 94.0625 130.937C95.6597 132.535 97.6389 133.333 100 133.333ZM93.75 106.667H106.458C106.458 103.194 106.91 100.382 107.812 98.2291C108.715 96.0764 110.556 93.4722 113.333 90.4166C115.833 87.6389 118.264 84.8264 120.625 81.9791C122.986 79.1319 124.167 75.4166 124.167 70.8333C124.167 65 121.91 60.0694 117.396 56.0416C112.882 52.0139 107.292 50 100.625 50C95.0694 50 90.0347 51.5972 85.5208 54.7916C81.0069 57.9861 77.8472 62.1527 76.0417 67.2916L87.5 72.0833C88.4722 69.0277 90.1736 66.5625 92.6042 64.6875C95.0347 62.8125 97.7083 61.875 100.625 61.875C103.681 61.875 106.215 62.7083 108.229 64.375C110.243 66.0416 111.25 68.1944 111.25 70.8333C111.25 73.75 110.382 76.3541 108.646 78.6458C106.91 80.9375 104.861 83.2639 102.5 85.625C99.7222 88.5416 97.5694 91.4583 96.0417 94.375C94.5139 97.2916 93.75 101.389 93.75 106.667Z" fill="#213A6C" fill-opacity="0.1"/>
</g>
</svg>
