<svg width="200" height="200" viewBox="0 0 200 200" fill="none" xmlns="http://www.w3.org/2000/svg">
<mask id="mask0_139_182" style="mask-type:alpha" maskUnits="userSpaceOnUse" x="0" y="0" width="200" height="200">
<rect width="200" height="200" fill="#D9D9D9"/>
</mask>
<g mask="url(#mask0_139_182)">
<path d="M0 150V136.875C0 130.903 3.05556 126.042 9.16667 122.292C15.2778 118.542 23.3333 116.667 33.3333 116.667C35.1389 116.667 36.875 116.701 38.5417 116.771C40.2083 116.84 41.8056 117.014 43.3333 117.292C41.3889 120.208 39.9306 123.264 38.9583 126.458C37.9861 129.653 37.5 132.986 37.5 136.458V150H0ZM50 150V136.458C50 132.014 51.2153 127.951 53.6458 124.271C56.0764 120.59 59.5139 117.361 63.9583 114.583C68.4028 111.806 73.7153 109.722 79.8958 108.333C86.0764 106.944 92.7778 106.25 100 106.25C107.361 106.25 114.132 106.944 120.312 108.333C126.493 109.722 131.806 111.806 136.25 114.583C140.694 117.361 144.097 120.59 146.458 124.271C148.819 127.951 150 132.014 150 136.458V150H50ZM162.5 150V136.458C162.5 132.847 162.049 129.444 161.146 126.25C160.243 123.056 158.889 120.069 157.083 117.292C158.611 117.014 160.174 116.84 161.771 116.771C163.368 116.701 165 116.667 166.667 116.667C176.667 116.667 184.722 118.507 190.833 122.188C196.944 125.868 200 130.764 200 136.875V150H162.5ZM67.7083 133.333H132.5C131.111 130.556 127.257 128.125 120.937 126.042C114.618 123.958 107.639 122.917 100 122.917C92.3611 122.917 85.3819 123.958 79.0625 126.042C72.7431 128.125 68.9583 130.556 67.7083 133.333ZM33.3333 108.333C28.75 108.333 24.8264 106.701 21.5625 103.437C18.2986 100.174 16.6667 96.25 16.6667 91.6667C16.6667 86.9444 18.2986 82.9861 21.5625 79.7917C24.8264 76.5972 28.75 75 33.3333 75C38.0556 75 42.0139 76.5972 45.2083 79.7917C48.4028 82.9861 50 86.9444 50 91.6667C50 96.25 48.4028 100.174 45.2083 103.437C42.0139 106.701 38.0556 108.333 33.3333 108.333ZM166.667 108.333C162.083 108.333 158.16 106.701 154.896 103.437C151.632 100.174 150 96.25 150 91.6667C150 86.9444 151.632 82.9861 154.896 79.7917C158.16 76.5972 162.083 75 166.667 75C171.389 75 175.347 76.5972 178.542 79.7917C181.736 82.9861 183.333 86.9444 183.333 91.6667C183.333 96.25 181.736 100.174 178.542 103.437C175.347 106.701 171.389 108.333 166.667 108.333ZM100 100C93.0555 100 87.1528 97.5694 82.2917 92.7083C77.4305 87.8472 75 81.9444 75 75C75 67.9167 77.4305 61.9792 82.2917 57.1875C87.1528 52.3958 93.0555 50 100 50C107.083 50 113.021 52.3958 117.812 57.1875C122.604 61.9792 125 67.9167 125 75C125 81.9444 122.604 87.8472 117.812 92.7083C113.021 97.5694 107.083 100 100 100ZM100 83.3333C102.361 83.3333 104.34 82.5347 105.938 80.9375C107.535 79.3403 108.333 77.3611 108.333 75C108.333 72.6389 107.535 70.6597 105.938 69.0625C104.34 67.4653 102.361 66.6667 100 66.6667C97.6389 66.6667 95.6597 67.4653 94.0625 69.0625C92.4653 70.6597 91.6667 72.6389 91.6667 75C91.6667 77.3611 92.4653 79.3403 94.0625 80.9375C95.6597 82.5347 97.6389 83.3333 100 83.3333Z" fill="#D10532" fill-opacity="0.1"/>
</g>
</svg>
