<svg width="200" height="200" viewBox="0 0 200 200" fill="none" xmlns="http://www.w3.org/2000/svg">
<mask id="mask0_139_110" style="mask-type:alpha" maskUnits="userSpaceOnUse" x="0" y="0" width="200" height="200">
<rect width="200" height="200" fill="#D9D9D9"/>
</mask>
<g mask="url(#mask0_139_110)">
<path d="M82.7044 176.042L62.0794 137.708L23.7461 117.083L38.5378 102.5L68.7461 107.708L89.9961 86.4584L23.9544 58.3334L41.4544 40.4167L121.663 54.5834L147.496 28.75C150.691 25.5556 154.649 23.9584 159.371 23.9584C164.093 23.9584 168.052 25.5556 171.246 28.75C174.441 31.9445 176.038 35.8681 176.038 40.5209C176.038 45.1737 174.441 49.0973 171.246 52.2917L145.204 78.3334L159.371 158.333L141.663 176.042L113.329 110L92.0794 131.25L97.4961 161.25L82.7044 176.042Z" fill="#213A6C" fill-opacity="0.1"/>
</g>
</svg>
