<svg width="80" height="80" viewBox="0 0 80 80" fill="none" xmlns="http://www.w3.org/2000/svg">
<mask id="mask0_119_294" style="mask-type:alpha" maskUnits="userSpaceOnUse" x="0" y="0" width="80" height="80">
<rect width="80" height="80" fill="#D9D9D9"/>
</mask>
<g mask="url(#mask0_119_294)">
<path d="M31.75 54.85L54.85 40L31.75 25.15V54.85ZM40 73C35.435 73 31.145 72.1338 27.13 70.4012C23.115 68.6687 19.6225 66.3175 16.6525 63.3475C13.6825 60.3775 11.3313 56.885 9.59875 52.87C7.86625 48.855 7 44.565 7 40C7 35.435 7.86625 31.145 9.59875 27.13C11.3313 23.115 13.6825 19.6225 16.6525 16.6525C19.6225 13.6825 23.115 11.3313 27.13 9.59875C31.145 7.86625 35.435 7 40 7C44.565 7 48.855 7.86625 52.87 9.59875C56.885 11.3313 60.3775 13.6825 63.3475 16.6525C66.3175 19.6225 68.6687 23.115 70.4012 27.13C72.1338 31.145 73 35.435 73 40C73 44.565 72.1338 48.855 70.4012 52.87C68.6687 56.885 66.3175 60.3775 63.3475 63.3475C60.3775 66.3175 56.885 68.6687 52.87 70.4012C48.855 72.1338 44.565 73 40 73Z" fill="white"/>
</g>
</svg>
