<svg width="40" height="40" viewBox="0 0 40 40" fill="none" xmlns="http://www.w3.org/2000/svg">
<mask id="mask0_703_2974" style="mask-type:alpha" maskUnits="userSpaceOnUse" x="0" y="0" width="40" height="40">
<rect width="40" height="40" fill="#D9D9D9"/>
</mask>
<g mask="url(#mask0_703_2974)">
<path d="M19.9987 36.6654C17.6931 36.6654 15.5265 36.2279 13.4987 35.3529C11.4709 34.4779 9.70703 33.2904 8.20703 31.7904C6.70703 30.2904 5.51953 28.5265 4.64453 26.4987C3.76953 24.4709 3.33203 22.3043 3.33203 19.9987C3.33203 17.6931 3.76953 15.5265 4.64453 13.4987C5.51953 11.4709 6.70703 9.70703 8.20703 8.20703C9.70703 6.70703 11.4709 5.51953 13.4987 4.64453C15.5265 3.76953 17.6931 3.33203 19.9987 3.33203C22.3043 3.33203 24.4709 3.76953 26.4987 4.64453C28.5265 5.51953 30.2904 6.70703 31.7904 8.20703C33.2904 9.70703 34.4779 11.4709 35.3529 13.4987C36.2279 15.5265 36.6654 17.6931 36.6654 19.9987C36.6654 22.3043 36.2279 24.4709 35.3529 26.4987C34.4779 28.5265 33.2904 30.2904 31.7904 31.7904C30.2904 33.2904 28.5265 34.4779 26.4987 35.3529C24.4709 36.2279 22.3043 36.6654 19.9987 36.6654ZM19.9987 33.332C23.7209 33.332 26.8737 32.0404 29.457 29.457C32.0404 26.8737 33.332 23.7209 33.332 19.9987C33.332 19.8043 33.3251 19.6029 33.3112 19.3945C33.2973 19.1862 33.2904 19.0126 33.2904 18.8737C33.1515 19.6793 32.7765 20.3459 32.1654 20.8737C31.5543 21.4015 30.832 21.6654 29.9987 21.6654H26.6654C25.7487 21.6654 24.964 21.339 24.3112 20.6862C23.6584 20.0334 23.332 19.2487 23.332 18.332V16.6654H16.6654V13.332C16.6654 12.4154 16.9918 11.6306 17.6445 10.9779C18.2973 10.3251 19.082 9.9987 19.9987 9.9987H21.6654C21.6654 9.35981 21.839 8.79731 22.1862 8.3112C22.5334 7.82509 22.957 7.42925 23.457 7.1237C22.9015 6.98481 22.339 6.8737 21.7695 6.79036C21.2001 6.70703 20.6098 6.66536 19.9987 6.66536C16.2765 6.66536 13.1237 7.95703 10.5404 10.5404C7.95703 13.1237 6.66536 16.2765 6.66536 19.9987H14.9987C16.832 19.9987 18.4015 20.6515 19.707 21.957C21.0126 23.2626 21.6654 24.832 21.6654 26.6654V28.332H16.6654V32.9154C17.2209 33.0543 17.7695 33.1584 18.3112 33.2279C18.8529 33.2973 19.4154 33.332 19.9987 33.332Z" fill="url(#paint0_linear_703_2974)"/>
</g>
<defs>
<linearGradient id="paint0_linear_703_2974" x1="3.33203" y1="3.33203" x2="40.7096" y2="8.74632" gradientUnits="userSpaceOnUse">
<stop stop-color="#6E4AC8"/>
<stop offset="1" stop-color="#0796E5"/>
</linearGradient>
</defs>
</svg>
