<svg width="1412" height="575" viewBox="0 0 1412 575" fill="none" xmlns="http://www.w3.org/2000/svg">
<path d="M1031.4 108.16C1034.16 108.16 1036.32 108.76 1037.91 109.99C1039.44 111.19 1040.4 112.96 1040.79 115.36H1037.25C1036.95 113.98 1036.29 112.96 1035.33 112.27C1034.34 111.58 1033.02 111.25 1031.4 111.25C1029.39 111.25 1027.8 111.91 1026.63 113.29C1025.34 114.73 1024.71 116.74 1024.71 119.38C1024.71 121.9 1025.28 123.85 1026.42 125.2C1027.65 126.64 1029.57 127.36 1032.18 127.36C1033.2 127.36 1034.16 127.24 1035.06 127C1035.9 126.76 1036.65 126.43 1037.37 126.01V121.6H1031.7V118.6H1040.88V127.66C1039.74 128.56 1038.45 129.22 1036.98 129.7C1035.42 130.18 1033.71 130.42 1031.79 130.42C1028.37 130.42 1025.73 129.34 1023.84 127.18C1022.07 125.17 1021.2 122.56 1021.2 119.38C1021.2 116.17 1022.07 113.53 1023.84 111.46C1025.7 109.24 1028.22 108.16 1031.4 108.16ZM1051.8 114.07C1052.55 114.07 1053.21 114.19 1053.75 114.46V117.88C1052.97 117.64 1052.25 117.55 1051.53 117.55C1050.63 117.55 1049.82 117.88 1049.1 118.6C1048.26 119.41 1047.87 120.46 1047.87 121.78V130H1044.48V114.49H1047.87V116.71C1048.29 115.93 1048.77 115.33 1049.34 114.91C1050.03 114.34 1050.84 114.07 1051.8 114.07ZM1062.9 114.07C1065.24 114.07 1067.13 114.82 1068.57 116.38C1069.98 117.91 1070.7 119.86 1070.7 122.26C1070.7 124.63 1069.98 126.58 1068.6 128.08C1067.16 129.64 1065.24 130.42 1062.9 130.42C1060.53 130.42 1058.64 129.64 1057.2 128.08C1055.79 126.58 1055.1 124.63 1055.1 122.26C1055.1 119.86 1055.79 117.91 1057.23 116.38C1058.64 114.82 1060.53 114.07 1062.9 114.07ZM1062.9 116.86C1061.46 116.86 1060.38 117.4 1059.6 118.54C1058.94 119.5 1058.61 120.76 1058.61 122.26C1058.61 123.76 1058.94 124.99 1059.6 125.95C1060.38 127.06 1061.46 127.63 1062.9 127.63C1064.31 127.63 1065.42 127.06 1066.2 125.95C1066.86 124.96 1067.22 123.73 1067.22 122.26C1067.22 120.76 1066.86 119.5 1066.2 118.54C1065.42 117.4 1064.31 116.86 1062.9 116.86ZM1072.03 114.49H1075.81L1078.9 125.95L1081.96 114.49H1085.11L1088.17 125.95L1091.26 114.49H1095.04L1089.82 130H1086.64L1083.55 118.66L1080.43 130H1077.25L1072.03 114.49ZM1101.87 109.48V114.49H1105.32V117.31H1101.87V126.07C1101.87 126.43 1101.93 126.7 1102.11 126.91C1102.29 127.09 1102.53 127.18 1102.89 127.18H1104.93V130H1102.32C1100.97 130 1099.98 129.64 1099.35 128.92C1098.75 128.26 1098.45 127.33 1098.45 126.07V117.31H1095.66V114.49H1098.45V110.89L1101.87 109.48ZM1107.87 108.16H1111.29V116.56C1111.86 115.69 1112.58 115.06 1113.42 114.64C1114.17 114.25 1115.04 114.07 1116.03 114.07C1117.92 114.07 1119.33 114.61 1120.26 115.72C1121.13 116.77 1121.58 118.33 1121.58 120.4V130H1118.16V121C1118.16 119.68 1117.89 118.66 1117.38 117.97C1116.78 117.22 1115.91 116.86 1114.74 116.86C1113.66 116.86 1112.82 117.28 1112.22 118.12C1111.59 118.96 1111.29 120.01 1111.29 121.33V130H1107.87V108.16ZM1135.48 108.58H1150.93V111.58H1138.99V117.52H1150.21V120.52H1138.99V127H1151.44V130H1135.48V108.58ZM1162.44 114.07C1166.31 114.07 1168.26 116.17 1168.26 120.43V130H1164.84V120.73C1164.84 118.18 1163.67 116.92 1161.33 116.92C1160.49 116.92 1159.74 117.22 1159.11 117.82C1158.39 118.48 1157.97 119.44 1157.85 120.67V130H1154.43V114.49H1157.85V116.29C1158.45 115.57 1159.14 115 1159.89 114.64C1160.67 114.25 1161.51 114.07 1162.44 114.07ZM1171.86 108.16H1175.28V116.56C1175.85 115.69 1176.57 115.06 1177.41 114.64C1178.16 114.25 1179.03 114.07 1180.02 114.07C1181.91 114.07 1183.32 114.61 1184.25 115.72C1185.12 116.77 1185.57 118.33 1185.57 120.4V130H1182.15V121C1182.15 119.68 1181.88 118.66 1181.37 117.97C1180.77 117.22 1179.9 116.86 1178.73 116.86C1177.65 116.86 1176.81 117.28 1176.21 118.12C1175.58 118.96 1175.28 120.01 1175.28 121.33V130H1171.86V108.16ZM1196.22 114.07C1198.5 114.07 1200.21 114.64 1201.29 115.78C1202.25 116.77 1202.73 118.21 1202.73 120.1V130H1199.55V127.96C1198.95 128.74 1198.2 129.31 1197.33 129.73C1196.34 130.18 1195.17 130.42 1193.82 130.42C1192.2 130.42 1190.94 130 1190.01 129.19C1189.05 128.35 1188.57 127.3 1188.57 126.01C1188.57 124.27 1189.23 122.92 1190.61 121.99C1191.87 121.09 1193.64 120.61 1195.92 120.55L1199.31 120.46V119.86C1199.31 117.82 1198.2 116.83 1195.98 116.83C1195.02 116.83 1194.27 116.98 1193.7 117.34C1193.04 117.73 1192.59 118.33 1192.41 119.14L1189.02 118.87C1189.35 117.16 1190.19 115.9 1191.54 115.12C1192.68 114.4 1194.24 114.07 1196.22 114.07ZM1199.31 122.92L1196.16 123.01C1193.43 123.07 1192.08 124.03 1192.08 125.89C1192.08 126.43 1192.29 126.88 1192.77 127.24C1193.25 127.6 1193.85 127.81 1194.6 127.81C1195.92 127.81 1197.03 127.42 1197.93 126.67C1198.83 125.89 1199.31 124.9 1199.31 123.7V122.92ZM1214.35 114.07C1218.22 114.07 1220.17 116.17 1220.17 120.43V130H1216.75V120.73C1216.75 118.18 1215.58 116.92 1213.24 116.92C1212.4 116.92 1211.65 117.22 1211.02 117.82C1210.3 118.48 1209.88 119.44 1209.76 120.67V130H1206.34V114.49H1209.76V116.29C1210.36 115.57 1211.05 115 1211.8 114.64C1212.58 114.25 1213.42 114.07 1214.35 114.07ZM1230.73 114.07C1232.74 114.07 1234.33 114.52 1235.53 115.42C1236.76 116.38 1237.54 117.82 1237.84 119.77H1234.45C1234.24 118.78 1233.82 118.06 1233.22 117.58C1232.59 117.1 1231.75 116.86 1230.73 116.86C1229.47 116.86 1228.48 117.31 1227.76 118.27C1227.04 119.2 1226.68 120.52 1226.68 122.2C1226.68 123.91 1227.01 125.26 1227.73 126.22C1228.39 127.15 1229.38 127.63 1230.7 127.63C1232.98 127.63 1234.24 126.49 1234.51 124.24H1237.9C1237.54 126.34 1236.73 127.9 1235.5 128.92C1234.3 129.91 1232.68 130.42 1230.67 130.42C1228.27 130.42 1226.41 129.64 1225.09 128.08C1223.8 126.58 1223.17 124.63 1223.17 122.23C1223.17 119.89 1223.8 117.97 1225.06 116.5C1226.41 114.88 1228.3 114.07 1230.73 114.07ZM1247.19 114.07C1249.74 114.07 1251.69 114.91 1253.04 116.65C1254.27 118.21 1254.9 120.4 1254.9 123.19H1243.29C1243.41 124.63 1243.8 125.74 1244.46 126.49C1245.12 127.24 1246.08 127.63 1247.31 127.63C1248.36 127.63 1249.2 127.39 1249.86 126.91C1250.37 126.52 1250.82 125.89 1251.24 125.02H1254.66C1254.3 126.46 1253.58 127.69 1252.5 128.65C1251.12 129.82 1249.41 130.42 1247.34 130.42C1245.03 130.42 1243.2 129.7 1241.85 128.29C1240.41 126.82 1239.69 124.81 1239.69 122.23C1239.69 119.92 1240.35 118 1241.73 116.44C1243.05 114.85 1244.88 114.07 1247.19 114.07ZM1247.28 116.86C1246.14 116.86 1245.27 117.16 1244.61 117.82C1243.98 118.45 1243.56 119.38 1243.35 120.61H1251.33C1251.03 118.09 1249.68 116.86 1247.28 116.86ZM1265.23 114.07C1267.51 114.07 1269.13 114.91 1270.12 116.59C1270.84 115.63 1271.59 114.97 1272.37 114.61C1273.06 114.25 1273.93 114.07 1274.98 114.07C1276.57 114.07 1277.89 114.58 1278.97 115.66C1279.99 116.74 1280.53 118.12 1280.53 119.83V130H1277.11V120.43C1277.11 119.2 1276.84 118.3 1276.33 117.76C1275.79 117.19 1274.95 116.92 1273.75 116.92C1272.91 116.92 1272.22 117.22 1271.65 117.88C1271.05 118.51 1270.78 119.38 1270.78 120.52V130H1267.36V120.46C1267.36 118.09 1266.34 116.92 1264.3 116.92C1263.31 116.92 1262.53 117.28 1261.93 118.06C1261.33 118.78 1261.03 119.68 1261.03 120.7V130H1257.61V114.49H1261.03V116.08C1262.32 114.73 1263.73 114.07 1265.23 114.07ZM1290.72 114.07C1293.27 114.07 1295.22 114.91 1296.57 116.65C1297.8 118.21 1298.43 120.4 1298.43 123.19H1286.82C1286.94 124.63 1287.33 125.74 1287.99 126.49C1288.65 127.24 1289.61 127.63 1290.84 127.63C1291.89 127.63 1292.73 127.39 1293.39 126.91C1293.9 126.52 1294.35 125.89 1294.77 125.02H1298.19C1297.83 126.46 1297.11 127.69 1296.03 128.65C1294.65 129.82 1292.94 130.42 1290.87 130.42C1288.56 130.42 1286.73 129.7 1285.38 128.29C1283.94 126.82 1283.22 124.81 1283.22 122.23C1283.22 119.92 1283.88 118 1285.26 116.44C1286.58 114.85 1288.41 114.07 1290.72 114.07ZM1290.81 116.86C1289.67 116.86 1288.8 117.16 1288.14 117.82C1287.51 118.45 1287.09 119.38 1286.88 120.61H1294.86C1294.56 118.09 1293.21 116.86 1290.81 116.86ZM1309.16 114.07C1313.03 114.07 1314.98 116.17 1314.98 120.43V130H1311.56V120.73C1311.56 118.18 1310.39 116.92 1308.05 116.92C1307.21 116.92 1306.46 117.22 1305.83 117.82C1305.11 118.48 1304.69 119.44 1304.57 120.67V130H1301.15V114.49H1304.57V116.29C1305.17 115.57 1305.86 115 1306.61 114.64C1307.39 114.25 1308.23 114.07 1309.16 114.07ZM1323.44 109.48V114.49H1326.89V117.31H1323.44V126.07C1323.44 126.43 1323.5 126.7 1323.68 126.91C1323.86 127.09 1324.1 127.18 1324.46 127.18H1326.5V130H1323.89C1322.54 130 1321.55 129.64 1320.92 128.92C1320.32 128.26 1320.02 127.33 1320.02 126.07V117.31H1317.23V114.49H1320.02V110.89L1323.44 109.48ZM1022.1 150.58H1030.98C1036.14 150.58 1038.75 152.77 1038.75 157.15C1038.75 161.56 1036.14 163.78 1030.92 163.78H1025.61V172H1022.1V150.58ZM1025.61 153.58V160.78H1030.71C1032.27 160.78 1033.41 160.48 1034.13 159.94C1034.85 159.37 1035.21 158.44 1035.21 157.15C1035.21 155.86 1034.82 154.96 1034.1 154.42C1033.38 153.85 1032.24 153.58 1030.71 153.58H1025.61ZM1041.76 150.16H1045.18V172H1041.76V150.16ZM1056.13 156.07C1058.41 156.07 1060.12 156.64 1061.2 157.78C1062.16 158.77 1062.64 160.21 1062.64 162.1V172H1059.46V169.96C1058.86 170.74 1058.11 171.31 1057.24 171.73C1056.25 172.18 1055.08 172.42 1053.73 172.42C1052.11 172.42 1050.85 172 1049.92 171.19C1048.96 170.35 1048.48 169.3 1048.48 168.01C1048.48 166.27 1049.14 164.92 1050.52 163.99C1051.78 163.09 1053.55 162.61 1055.83 162.55L1059.22 162.46V161.86C1059.22 159.82 1058.11 158.83 1055.89 158.83C1054.93 158.83 1054.18 158.98 1053.61 159.34C1052.95 159.73 1052.5 160.33 1052.32 161.14L1048.93 160.87C1049.26 159.16 1050.1 157.9 1051.45 157.12C1052.59 156.4 1054.15 156.07 1056.13 156.07ZM1059.22 164.92L1056.07 165.01C1053.34 165.07 1051.99 166.03 1051.99 167.89C1051.99 168.43 1052.2 168.88 1052.68 169.24C1053.16 169.6 1053.76 169.81 1054.51 169.81C1055.83 169.81 1056.94 169.42 1057.84 168.67C1058.74 167.89 1059.22 166.9 1059.22 165.7V164.92ZM1074.25 156.07C1078.12 156.07 1080.07 158.17 1080.07 162.43V172H1076.65V162.73C1076.65 160.18 1075.48 158.92 1073.14 158.92C1072.3 158.92 1071.55 159.22 1070.92 159.82C1070.2 160.48 1069.78 161.44 1069.66 162.67V172H1066.24V156.49H1069.66V158.29C1070.26 157.57 1070.95 157 1071.7 156.64C1072.48 156.25 1073.32 156.07 1074.25 156.07Z" fill="#D10532"/>
<path d="M1031.4 348.16C1034.16 348.16 1036.32 348.76 1037.91 349.99C1039.44 351.19 1040.4 352.96 1040.79 355.36H1037.25C1036.95 353.98 1036.29 352.96 1035.33 352.27C1034.34 351.58 1033.02 351.25 1031.4 351.25C1029.39 351.25 1027.8 351.91 1026.63 353.29C1025.34 354.73 1024.71 356.74 1024.71 359.38C1024.71 361.9 1025.28 363.85 1026.42 365.2C1027.65 366.64 1029.57 367.36 1032.18 367.36C1033.2 367.36 1034.16 367.24 1035.06 367C1035.9 366.76 1036.65 366.43 1037.37 366.01V361.6H1031.7V358.6H1040.88V367.66C1039.74 368.56 1038.45 369.22 1036.98 369.7C1035.42 370.18 1033.71 370.42 1031.79 370.42C1028.37 370.42 1025.73 369.34 1023.84 367.18C1022.07 365.17 1021.2 362.56 1021.2 359.38C1021.2 356.17 1022.07 353.53 1023.84 351.46C1025.7 349.24 1028.22 348.16 1031.4 348.16ZM1051.8 354.07C1052.55 354.07 1053.21 354.19 1053.75 354.46V357.88C1052.97 357.64 1052.25 357.55 1051.53 357.55C1050.63 357.55 1049.82 357.88 1049.1 358.6C1048.26 359.41 1047.87 360.46 1047.87 361.78V370H1044.48V354.49H1047.87V356.71C1048.29 355.93 1048.77 355.33 1049.34 354.91C1050.03 354.34 1050.84 354.07 1051.8 354.07ZM1062.9 354.07C1065.24 354.07 1067.13 354.82 1068.57 356.38C1069.98 357.91 1070.7 359.86 1070.7 362.26C1070.7 364.63 1069.98 366.58 1068.6 368.08C1067.16 369.64 1065.24 370.42 1062.9 370.42C1060.53 370.42 1058.64 369.64 1057.2 368.08C1055.79 366.58 1055.1 364.63 1055.1 362.26C1055.1 359.86 1055.79 357.91 1057.23 356.38C1058.64 354.82 1060.53 354.07 1062.9 354.07ZM1062.9 356.86C1061.46 356.86 1060.38 357.4 1059.6 358.54C1058.94 359.5 1058.61 360.76 1058.61 362.26C1058.61 363.76 1058.94 364.99 1059.6 365.95C1060.38 367.06 1061.46 367.63 1062.9 367.63C1064.31 367.63 1065.42 367.06 1066.2 365.95C1066.86 364.96 1067.22 363.73 1067.22 362.26C1067.22 360.76 1066.86 359.5 1066.2 358.54C1065.42 357.4 1064.31 356.86 1062.9 356.86ZM1072.03 354.49H1075.81L1078.9 365.95L1081.96 354.49H1085.11L1088.17 365.95L1091.26 354.49H1095.04L1089.82 370H1086.64L1083.55 358.66L1080.43 370H1077.25L1072.03 354.49ZM1101.87 349.48V354.49H1105.32V357.31H1101.87V366.07C1101.87 366.43 1101.93 366.7 1102.11 366.91C1102.29 367.09 1102.53 367.18 1102.89 367.18H1104.93V370H1102.32C1100.97 370 1099.98 369.64 1099.35 368.92C1098.75 368.26 1098.45 367.33 1098.45 366.07V357.31H1095.66V354.49H1098.45V350.89L1101.87 349.48ZM1107.87 348.16H1111.29V356.56C1111.86 355.69 1112.58 355.06 1113.42 354.64C1114.17 354.25 1115.04 354.07 1116.03 354.07C1117.92 354.07 1119.33 354.61 1120.26 355.72C1121.13 356.77 1121.58 358.33 1121.58 360.4V370H1118.16V361C1118.16 359.68 1117.89 358.66 1117.38 357.97C1116.78 357.22 1115.91 356.86 1114.74 356.86C1113.66 356.86 1112.82 357.28 1112.22 358.12C1111.59 358.96 1111.29 360.01 1111.29 361.33V370H1107.87V348.16ZM1135.48 348.58H1150.93V351.58H1138.99V357.52H1150.21V360.52H1138.99V367H1151.44V370H1135.48V348.58ZM1162.44 354.07C1166.31 354.07 1168.26 356.17 1168.26 360.43V370H1164.84V360.73C1164.84 358.18 1163.67 356.92 1161.33 356.92C1160.49 356.92 1159.74 357.22 1159.11 357.82C1158.39 358.48 1157.97 359.44 1157.85 360.67V370H1154.43V354.49H1157.85V356.29C1158.45 355.57 1159.14 355 1159.89 354.64C1160.67 354.25 1161.51 354.07 1162.44 354.07ZM1171.86 348.16H1175.28V356.56C1175.85 355.69 1176.57 355.06 1177.41 354.64C1178.16 354.25 1179.03 354.07 1180.02 354.07C1181.91 354.07 1183.32 354.61 1184.25 355.72C1185.12 356.77 1185.57 358.33 1185.57 360.4V370H1182.15V361C1182.15 359.68 1181.88 358.66 1181.37 357.97C1180.77 357.22 1179.9 356.86 1178.73 356.86C1177.65 356.86 1176.81 357.28 1176.21 358.12C1175.58 358.96 1175.28 360.01 1175.28 361.33V370H1171.86V348.16ZM1196.22 354.07C1198.5 354.07 1200.21 354.64 1201.29 355.78C1202.25 356.77 1202.73 358.21 1202.73 360.1V370H1199.55V367.96C1198.95 368.74 1198.2 369.31 1197.33 369.73C1196.34 370.18 1195.17 370.42 1193.82 370.42C1192.2 370.42 1190.94 370 1190.01 369.19C1189.05 368.35 1188.57 367.3 1188.57 366.01C1188.57 364.27 1189.23 362.92 1190.61 361.99C1191.87 361.09 1193.64 360.61 1195.92 360.55L1199.31 360.46V359.86C1199.31 357.82 1198.2 356.83 1195.98 356.83C1195.02 356.83 1194.27 356.98 1193.7 357.34C1193.04 357.73 1192.59 358.33 1192.41 359.14L1189.02 358.87C1189.35 357.16 1190.19 355.9 1191.54 355.12C1192.68 354.4 1194.24 354.07 1196.22 354.07ZM1199.31 362.92L1196.16 363.01C1193.43 363.07 1192.08 364.03 1192.08 365.89C1192.08 366.43 1192.29 366.88 1192.77 367.24C1193.25 367.6 1193.85 367.81 1194.6 367.81C1195.92 367.81 1197.03 367.42 1197.93 366.67C1198.83 365.89 1199.31 364.9 1199.31 363.7V362.92ZM1214.35 354.07C1218.22 354.07 1220.17 356.17 1220.17 360.43V370H1216.75V360.73C1216.75 358.18 1215.58 356.92 1213.24 356.92C1212.4 356.92 1211.65 357.22 1211.02 357.82C1210.3 358.48 1209.88 359.44 1209.76 360.67V370H1206.34V354.49H1209.76V356.29C1210.36 355.57 1211.05 355 1211.8 354.64C1212.58 354.25 1213.42 354.07 1214.35 354.07ZM1230.73 354.07C1232.74 354.07 1234.33 354.52 1235.53 355.42C1236.76 356.38 1237.54 357.82 1237.84 359.77H1234.45C1234.24 358.78 1233.82 358.06 1233.22 357.58C1232.59 357.1 1231.75 356.86 1230.73 356.86C1229.47 356.86 1228.48 357.31 1227.76 358.27C1227.04 359.2 1226.68 360.52 1226.68 362.2C1226.68 363.91 1227.01 365.26 1227.73 366.22C1228.39 367.15 1229.38 367.63 1230.7 367.63C1232.98 367.63 1234.24 366.49 1234.51 364.24H1237.9C1237.54 366.34 1236.73 367.9 1235.5 368.92C1234.3 369.91 1232.68 370.42 1230.67 370.42C1228.27 370.42 1226.41 369.64 1225.09 368.08C1223.8 366.58 1223.17 364.63 1223.17 362.23C1223.17 359.89 1223.8 357.97 1225.06 356.5C1226.41 354.88 1228.3 354.07 1230.73 354.07ZM1247.19 354.07C1249.74 354.07 1251.69 354.91 1253.04 356.65C1254.27 358.21 1254.9 360.4 1254.9 363.19H1243.29C1243.41 364.63 1243.8 365.74 1244.46 366.49C1245.12 367.24 1246.08 367.63 1247.31 367.63C1248.36 367.63 1249.2 367.39 1249.86 366.91C1250.37 366.52 1250.82 365.89 1251.24 365.02H1254.66C1254.3 366.46 1253.58 367.69 1252.5 368.65C1251.12 369.82 1249.41 370.42 1247.34 370.42C1245.03 370.42 1243.2 369.7 1241.85 368.29C1240.41 366.82 1239.69 364.81 1239.69 362.23C1239.69 359.92 1240.35 358 1241.73 356.44C1243.05 354.85 1244.88 354.07 1247.19 354.07ZM1247.28 356.86C1246.14 356.86 1245.27 357.16 1244.61 357.82C1243.98 358.45 1243.56 359.38 1243.35 360.61H1251.33C1251.03 358.09 1249.68 356.86 1247.28 356.86ZM1265.23 354.07C1267.51 354.07 1269.13 354.91 1270.12 356.59C1270.84 355.63 1271.59 354.97 1272.37 354.61C1273.06 354.25 1273.93 354.07 1274.98 354.07C1276.57 354.07 1277.89 354.58 1278.97 355.66C1279.99 356.74 1280.53 358.12 1280.53 359.83V370H1277.11V360.43C1277.11 359.2 1276.84 358.3 1276.33 357.76C1275.79 357.19 1274.95 356.92 1273.75 356.92C1272.91 356.92 1272.22 357.22 1271.65 357.88C1271.05 358.51 1270.78 359.38 1270.78 360.52V370H1267.36V360.46C1267.36 358.09 1266.34 356.92 1264.3 356.92C1263.31 356.92 1262.53 357.28 1261.93 358.06C1261.33 358.78 1261.03 359.68 1261.03 360.7V370H1257.61V354.49H1261.03V356.08C1262.32 354.73 1263.73 354.07 1265.23 354.07ZM1290.72 354.07C1293.27 354.07 1295.22 354.91 1296.57 356.65C1297.8 358.21 1298.43 360.4 1298.43 363.19H1286.82C1286.94 364.63 1287.33 365.74 1287.99 366.49C1288.65 367.24 1289.61 367.63 1290.84 367.63C1291.89 367.63 1292.73 367.39 1293.39 366.91C1293.9 366.52 1294.35 365.89 1294.77 365.02H1298.19C1297.83 366.46 1297.11 367.69 1296.03 368.65C1294.65 369.82 1292.94 370.42 1290.87 370.42C1288.56 370.42 1286.73 369.7 1285.38 368.29C1283.94 366.82 1283.22 364.81 1283.22 362.23C1283.22 359.92 1283.88 358 1285.26 356.44C1286.58 354.85 1288.41 354.07 1290.72 354.07ZM1290.81 356.86C1289.67 356.86 1288.8 357.16 1288.14 357.82C1287.51 358.45 1287.09 359.38 1286.88 360.61H1294.86C1294.56 358.09 1293.21 356.86 1290.81 356.86ZM1309.16 354.07C1313.03 354.07 1314.98 356.17 1314.98 360.43V370H1311.56V360.73C1311.56 358.18 1310.39 356.92 1308.05 356.92C1307.21 356.92 1306.46 357.22 1305.83 357.82C1305.11 358.48 1304.69 359.44 1304.57 360.67V370H1301.15V354.49H1304.57V356.29C1305.17 355.57 1305.86 355 1306.61 354.64C1307.39 354.25 1308.23 354.07 1309.16 354.07ZM1323.44 349.48V354.49H1326.89V357.31H1323.44V366.07C1323.44 366.43 1323.5 366.7 1323.68 366.91C1323.86 367.09 1324.1 367.18 1324.46 367.18H1326.5V370H1323.89C1322.54 370 1321.55 369.64 1320.92 368.92C1320.32 368.26 1320.02 367.33 1320.02 366.07V357.31H1317.23V354.49H1320.02V350.89L1323.44 349.48ZM1020.45 390.58H1038V393.58H1030.98V412H1027.47V393.58H1020.45V390.58ZM1042.57 390.16C1043.23 390.16 1043.8 390.37 1044.25 390.79C1044.67 391.21 1044.91 391.75 1044.91 392.41C1044.91 393.07 1044.67 393.64 1044.22 394.06C1043.77 394.48 1043.23 394.69 1042.57 394.69C1041.91 394.69 1041.37 394.48 1040.92 394.06C1040.47 393.61 1040.26 393.07 1040.26 392.41C1040.26 391.75 1040.47 391.21 1040.92 390.79C1041.37 390.37 1041.91 390.16 1042.57 390.16ZM1040.86 396.49H1044.28V412H1040.86V396.49ZM1056.14 396.07C1058.42 396.07 1060.04 396.91 1061.03 398.59C1061.75 397.63 1062.5 396.97 1063.28 396.61C1063.97 396.25 1064.84 396.07 1065.89 396.07C1067.48 396.07 1068.8 396.58 1069.88 397.66C1070.9 398.74 1071.44 400.12 1071.44 401.83V412H1068.02V402.43C1068.02 401.2 1067.75 400.3 1067.24 399.76C1066.7 399.19 1065.86 398.92 1064.66 398.92C1063.82 398.92 1063.13 399.22 1062.56 399.88C1061.96 400.51 1061.69 401.38 1061.69 402.52V412H1058.27V402.46C1058.27 400.09 1057.25 398.92 1055.21 398.92C1054.22 398.92 1053.44 399.28 1052.84 400.06C1052.24 400.78 1051.94 401.68 1051.94 402.7V412H1048.52V396.49H1051.94V398.08C1053.23 396.73 1054.64 396.07 1056.14 396.07ZM1081.63 396.07C1084.18 396.07 1086.13 396.91 1087.48 398.65C1088.71 400.21 1089.34 402.4 1089.34 405.19H1077.73C1077.85 406.63 1078.24 407.74 1078.9 408.49C1079.56 409.24 1080.52 409.63 1081.75 409.63C1082.8 409.63 1083.64 409.39 1084.3 408.91C1084.81 408.52 1085.26 407.89 1085.68 407.02H1089.1C1088.74 408.46 1088.02 409.69 1086.94 410.65C1085.56 411.82 1083.85 412.42 1081.78 412.42C1079.47 412.42 1077.64 411.7 1076.29 410.29C1074.85 408.82 1074.13 406.81 1074.13 404.23C1074.13 401.92 1074.79 400 1076.17 398.44C1077.49 396.85 1079.32 396.07 1081.63 396.07ZM1081.72 398.86C1080.58 398.86 1079.71 399.16 1079.05 399.82C1078.42 400.45 1078 401.38 1077.79 402.61H1085.77C1085.47 400.09 1084.12 398.86 1081.72 398.86ZM1092.35 390.16H1095.77V412H1092.35V390.16ZM1101.98 390.16C1102.64 390.16 1103.21 390.37 1103.66 390.79C1104.08 391.21 1104.32 391.75 1104.32 392.41C1104.32 393.07 1104.08 393.64 1103.63 394.06C1103.18 394.48 1102.64 394.69 1101.98 394.69C1101.32 394.69 1100.78 394.48 1100.33 394.06C1099.88 393.61 1099.67 393.07 1099.67 392.41C1099.67 391.75 1099.88 391.21 1100.33 390.79C1100.78 390.37 1101.32 390.16 1101.98 390.16ZM1100.27 396.49H1103.69V412H1100.27V396.49ZM1115.94 396.07C1119.81 396.07 1121.76 398.17 1121.76 402.43V412H1118.34V402.73C1118.34 400.18 1117.17 398.92 1114.83 398.92C1113.99 398.92 1113.24 399.22 1112.61 399.82C1111.89 400.48 1111.47 401.44 1111.35 402.67V412H1107.93V396.49H1111.35V398.29C1111.95 397.57 1112.64 397 1113.39 396.64C1114.17 396.25 1115.01 396.07 1115.94 396.07ZM1131.96 396.07C1134.51 396.07 1136.46 396.91 1137.81 398.65C1139.04 400.21 1139.67 402.4 1139.67 405.19H1128.06C1128.18 406.63 1128.57 407.74 1129.23 408.49C1129.89 409.24 1130.85 409.63 1132.08 409.63C1133.13 409.63 1133.97 409.39 1134.63 408.91C1135.14 408.52 1135.59 407.89 1136.01 407.02H1139.43C1139.07 408.46 1138.35 409.69 1137.27 410.65C1135.89 411.82 1134.18 412.42 1132.11 412.42C1129.8 412.42 1127.97 411.7 1126.62 410.29C1125.18 408.82 1124.46 406.81 1124.46 404.23C1124.46 401.92 1125.12 400 1126.5 398.44C1127.82 396.85 1129.65 396.07 1131.96 396.07ZM1132.05 398.86C1130.91 398.86 1130.04 399.16 1129.38 399.82C1128.75 400.45 1128.33 401.38 1128.12 402.61H1136.1C1135.8 400.09 1134.45 398.86 1132.05 398.86Z" fill="#213A6C"/>
<path d="M114.1 347.58H122.98C128.14 347.58 130.75 349.77 130.75 354.15C130.75 358.56 128.14 360.78 122.92 360.78H117.61V369H114.1V347.58ZM117.61 350.58V357.78H122.71C124.27 357.78 125.41 357.48 126.13 356.94C126.85 356.37 127.21 355.44 127.21 354.15C127.21 352.86 126.82 351.96 126.1 351.42C125.38 350.85 124.24 350.58 122.71 350.58H117.61ZM140.058 353.07C142.608 353.07 144.558 353.91 145.908 355.65C147.138 357.21 147.768 359.4 147.768 362.19H136.158C136.278 363.63 136.668 364.74 137.328 365.49C137.988 366.24 138.948 366.63 140.178 366.63C141.228 366.63 142.068 366.39 142.728 365.91C143.238 365.52 143.688 364.89 144.108 364.02H147.528C147.168 365.46 146.448 366.69 145.368 367.65C143.988 368.82 142.278 369.42 140.208 369.42C137.898 369.42 136.068 368.7 134.718 367.29C133.278 365.82 132.558 363.81 132.558 361.23C132.558 358.92 133.218 357 134.598 355.44C135.918 353.85 137.748 353.07 140.058 353.07ZM140.148 355.86C139.008 355.86 138.138 356.16 137.478 356.82C136.848 357.45 136.428 358.38 136.218 359.61H144.198C143.898 357.09 142.548 355.86 140.148 355.86ZM157.8 353.07C158.55 353.07 159.21 353.19 159.75 353.46V356.88C158.97 356.64 158.25 356.55 157.53 356.55C156.63 356.55 155.82 356.88 155.1 357.6C154.26 358.41 153.87 359.46 153.87 360.78V369H150.48V353.49H153.87V355.71C154.29 354.93 154.77 354.33 155.34 353.91C156.03 353.34 156.84 353.07 157.8 353.07ZM167.55 353.07C171.63 353.07 173.88 354.69 174.24 357.99H170.91C170.67 357.21 170.31 356.64 169.83 356.34C169.32 356.01 168.54 355.86 167.49 355.86C166.59 355.86 165.9 355.98 165.45 356.25C164.91 356.52 164.67 356.94 164.67 357.54C164.67 358.02 165.06 358.47 165.9 358.83C166.41 359.04 167.43 359.34 168.99 359.73C170.73 360.15 172.05 360.63 172.89 361.2C174.12 361.98 174.75 363.09 174.75 364.47C174.75 367.77 172.41 369.42 167.76 369.42C163.44 369.42 161.13 367.59 160.8 363.96H164.13C164.31 364.95 164.67 365.64 165.18 366.06C165.69 366.42 166.5 366.63 167.64 366.63C170.04 366.63 171.24 365.97 171.24 364.71C171.24 363.99 170.79 363.42 169.89 363C169.41 362.76 168.39 362.49 166.83 362.13C165 361.71 163.71 361.26 162.96 360.78C161.76 360.03 161.16 358.98 161.16 357.63C161.16 356.19 161.73 355.08 162.93 354.3C164.1 353.46 165.63 353.07 167.55 353.07ZM184.662 353.07C187.002 353.07 188.892 353.82 190.332 355.38C191.742 356.91 192.462 358.86 192.462 361.26C192.462 363.63 191.742 365.58 190.362 367.08C188.922 368.64 187.002 369.42 184.662 369.42C182.292 369.42 180.402 368.64 178.962 367.08C177.552 365.58 176.862 363.63 176.862 361.26C176.862 358.86 177.552 356.91 178.992 355.38C180.402 353.82 182.292 353.07 184.662 353.07ZM184.662 355.86C183.222 355.86 182.142 356.4 181.362 357.54C180.702 358.5 180.372 359.76 180.372 361.26C180.372 362.76 180.702 363.99 181.362 364.95C182.142 366.06 183.222 366.63 184.662 366.63C186.072 366.63 187.182 366.06 187.962 364.95C188.622 363.96 188.982 362.73 188.982 361.26C188.982 359.76 188.622 358.5 187.962 357.54C187.182 356.4 186.072 355.86 184.662 355.86ZM203.46 353.07C207.33 353.07 209.28 355.17 209.28 359.43V369H205.86V359.73C205.86 357.18 204.69 355.92 202.35 355.92C201.51 355.92 200.76 356.22 200.13 356.82C199.41 357.48 198.99 358.44 198.87 359.67V369H195.45V353.49H198.87V355.29C199.47 354.57 200.16 354 200.91 353.64C201.69 353.25 202.53 353.07 203.46 353.07ZM219.932 353.07C222.212 353.07 223.922 353.64 225.002 354.78C225.962 355.77 226.442 357.21 226.442 359.1V369H223.262V366.96C222.662 367.74 221.912 368.31 221.042 368.73C220.052 369.18 218.882 369.42 217.532 369.42C215.912 369.42 214.652 369 213.722 368.19C212.762 367.35 212.282 366.3 212.282 365.01C212.282 363.27 212.942 361.92 214.322 360.99C215.582 360.09 217.352 359.61 219.632 359.55L223.022 359.46V358.86C223.022 356.82 221.912 355.83 219.692 355.83C218.732 355.83 217.982 355.98 217.412 356.34C216.752 356.73 216.302 357.33 216.122 358.14L212.732 357.87C213.062 356.16 213.902 354.9 215.252 354.12C216.392 353.4 217.952 353.07 219.932 353.07ZM223.022 361.92L219.872 362.01C217.142 362.07 215.792 363.03 215.792 364.89C215.792 365.43 216.002 365.88 216.482 366.24C216.962 366.6 217.562 366.81 218.312 366.81C219.632 366.81 220.742 366.42 221.642 365.67C222.542 364.89 223.022 363.9 223.022 362.7V361.92ZM230.35 347.16H233.77V369H230.35V347.16ZM239.977 347.16C240.637 347.16 241.207 347.37 241.657 347.79C242.077 348.21 242.317 348.75 242.317 349.41C242.317 350.07 242.077 350.64 241.627 351.06C241.177 351.48 240.637 351.69 239.977 351.69C239.317 351.69 238.777 351.48 238.327 351.06C237.877 350.61 237.667 350.07 237.667 349.41C237.667 348.75 237.877 348.21 238.327 347.79C238.777 347.37 239.317 347.16 239.977 347.16ZM238.267 353.49H241.687V369H238.267V353.49ZM245.179 353.49H258.079V355.68L249.379 366.21H258.559V369H244.879V366.69L253.459 356.28H245.179V353.49ZM267.705 353.07C270.255 353.07 272.205 353.91 273.555 355.65C274.785 357.21 275.415 359.4 275.415 362.19H263.805C263.925 363.63 264.315 364.74 264.975 365.49C265.635 366.24 266.595 366.63 267.825 366.63C268.875 366.63 269.715 366.39 270.375 365.91C270.885 365.52 271.335 364.89 271.755 364.02H275.175C274.815 365.46 274.095 366.69 273.015 367.65C271.635 368.82 269.925 369.42 267.855 369.42C265.545 369.42 263.715 368.7 262.365 367.29C260.925 365.82 260.205 363.81 260.205 361.23C260.205 358.92 260.865 357 262.245 355.44C263.565 353.85 265.395 353.07 267.705 353.07ZM267.795 355.86C266.655 355.86 265.785 356.16 265.125 356.82C264.495 357.45 264.075 358.38 263.865 359.61H271.845C271.545 357.09 270.195 355.86 267.795 355.86ZM289.166 347.16H292.586V369H289.406V367.35C288.326 368.73 286.766 369.42 284.726 369.42C282.416 369.42 280.616 368.61 279.326 366.99C278.126 365.49 277.526 363.54 277.526 361.17C277.526 358.89 278.096 357 279.296 355.5C280.556 353.88 282.326 353.07 284.546 353.07C286.346 353.07 287.876 353.91 289.166 355.62V347.16ZM285.356 355.83C283.796 355.83 282.686 356.34 281.966 357.36C281.336 358.23 281.036 359.49 281.036 361.17C281.036 362.85 281.306 364.14 281.906 365.04C282.596 366.12 283.706 366.66 285.236 366.66C286.556 366.66 287.606 366.12 288.326 365.07C288.956 364.11 289.286 362.85 289.286 361.35V361.11C289.286 359.46 288.866 358.14 288.086 357.18C287.366 356.28 286.436 355.83 285.356 355.83ZM306.463 347.58H314.293C317.773 347.58 320.383 348.54 322.183 350.46C323.893 352.26 324.763 354.87 324.763 358.29C324.763 361.68 323.893 364.29 322.183 366.12C320.383 368.04 317.773 369 314.293 369H306.463V347.58ZM309.973 350.58V366H313.633C316.303 366 318.253 365.37 319.483 364.14C320.683 362.88 321.283 360.93 321.283 358.29C321.283 355.59 320.683 353.61 319.483 352.41C318.253 351.18 316.303 350.58 313.633 350.58H309.973ZM326.105 353.49H329.825L333.935 364.53L337.865 353.49H341.585L333.185 374.94H329.525L332.255 368.64L326.105 353.49ZM351.556 353.07C355.426 353.07 357.376 355.17 357.376 359.43V369H353.956V359.73C353.956 357.18 352.786 355.92 350.446 355.92C349.606 355.92 348.856 356.22 348.226 356.82C347.506 357.48 347.086 358.44 346.966 359.67V369H343.546V353.49H346.966V355.29C347.566 354.57 348.256 354 349.006 353.64C349.786 353.25 350.626 353.07 351.556 353.07ZM368.028 353.07C370.308 353.07 372.018 353.64 373.098 354.78C374.058 355.77 374.538 357.21 374.538 359.1V369H371.358V366.96C370.758 367.74 370.008 368.31 369.138 368.73C368.148 369.18 366.978 369.42 365.628 369.42C364.008 369.42 362.748 369 361.818 368.19C360.858 367.35 360.378 366.3 360.378 365.01C360.378 363.27 361.038 361.92 362.418 360.99C363.678 360.09 365.448 359.61 367.728 359.55L371.118 359.46V358.86C371.118 356.82 370.008 355.83 367.788 355.83C366.828 355.83 366.078 355.98 365.508 356.34C364.848 356.73 364.398 357.33 364.218 358.14L360.828 357.87C361.158 356.16 361.998 354.9 363.348 354.12C364.488 353.4 366.048 353.07 368.028 353.07ZM371.118 361.92L367.968 362.01C365.238 362.07 363.888 363.03 363.888 364.89C363.888 365.43 364.098 365.88 364.578 366.24C365.058 366.6 365.658 366.81 366.408 366.81C367.728 366.81 368.838 366.42 369.738 365.67C370.638 364.89 371.118 363.9 371.118 362.7V361.92ZM385.766 353.07C388.046 353.07 389.666 353.91 390.656 355.59C391.376 354.63 392.126 353.97 392.906 353.61C393.596 353.25 394.466 353.07 395.516 353.07C397.106 353.07 398.426 353.58 399.506 354.66C400.526 355.74 401.066 357.12 401.066 358.83V369H397.646V359.43C397.646 358.2 397.376 357.3 396.866 356.76C396.326 356.19 395.486 355.92 394.286 355.92C393.446 355.92 392.756 356.22 392.186 356.88C391.586 357.51 391.316 358.38 391.316 359.52V369H387.896V359.46C387.896 357.09 386.876 355.92 384.836 355.92C383.846 355.92 383.066 356.28 382.466 357.06C381.866 357.78 381.566 358.68 381.566 359.7V369H378.146V353.49H381.566V355.08C382.856 353.73 384.266 353.07 385.766 353.07ZM406.969 347.16C407.629 347.16 408.199 347.37 408.649 347.79C409.069 348.21 409.309 348.75 409.309 349.41C409.309 350.07 409.069 350.64 408.619 351.06C408.169 351.48 407.629 351.69 406.969 351.69C406.309 351.69 405.769 351.48 405.319 351.06C404.869 350.61 404.659 350.07 404.659 349.41C404.659 348.75 404.869 348.21 405.319 347.79C405.769 347.37 406.309 347.16 406.969 347.16ZM405.259 353.49H408.679V369H405.259V353.49ZM419.881 353.07C421.891 353.07 423.481 353.52 424.681 354.42C425.911 355.38 426.691 356.82 426.991 358.77H423.601C423.391 357.78 422.971 357.06 422.371 356.58C421.741 356.1 420.901 355.86 419.881 355.86C418.621 355.86 417.631 356.31 416.911 357.27C416.191 358.2 415.831 359.52 415.831 361.2C415.831 362.91 416.161 364.26 416.881 365.22C417.541 366.15 418.531 366.63 419.851 366.63C422.131 366.63 423.391 365.49 423.661 363.24H427.051C426.691 365.34 425.881 366.9 424.651 367.92C423.451 368.91 421.831 369.42 419.821 369.42C417.421 369.42 415.561 368.64 414.241 367.08C412.951 365.58 412.321 363.63 412.321 361.23C412.321 358.89 412.951 356.97 414.211 355.5C415.561 353.88 417.451 353.07 419.881 353.07ZM123.4 389.16C125.92 389.16 128.02 389.82 129.64 391.14C131.2 392.4 132.13 394.14 132.46 396.3H129.04C128.68 394.89 128.02 393.87 127.03 393.21C126.07 392.55 124.84 392.25 123.34 392.25C121.09 392.25 119.41 393 118.27 394.56C117.22 395.94 116.71 397.86 116.71 400.32C116.71 402.84 117.22 404.79 118.24 406.14C119.35 407.58 121.09 408.33 123.43 408.33C124.96 408.33 126.22 407.94 127.18 407.22C128.2 406.41 128.92 405.18 129.34 403.56H132.76C132.28 406.08 131.17 408.03 129.4 409.44C127.75 410.76 125.77 411.42 123.46 411.42C119.89 411.42 117.22 410.28 115.48 408.06C113.95 406.14 113.2 403.56 113.2 400.32C113.2 397.14 113.98 394.53 115.57 392.55C117.37 390.27 119.98 389.16 123.4 389.16ZM142.973 395.07C145.313 395.07 147.203 395.82 148.643 397.38C150.053 398.91 150.773 400.86 150.773 403.26C150.773 405.63 150.053 407.58 148.673 409.08C147.233 410.64 145.313 411.42 142.973 411.42C140.603 411.42 138.713 410.64 137.273 409.08C135.863 407.58 135.173 405.63 135.173 403.26C135.173 400.86 135.863 398.91 137.303 397.38C138.713 395.82 140.603 395.07 142.973 395.07ZM142.973 397.86C141.533 397.86 140.453 398.4 139.673 399.54C139.013 400.5 138.683 401.76 138.683 403.26C138.683 404.76 139.013 405.99 139.673 406.95C140.453 408.06 141.533 408.63 142.973 408.63C144.383 408.63 145.493 408.06 146.273 406.95C146.933 405.96 147.293 404.73 147.293 403.26C147.293 401.76 146.933 400.5 146.273 399.54C145.493 398.4 144.383 397.86 142.973 397.86ZM161.771 395.07C165.641 395.07 167.591 397.17 167.591 401.43V411H164.171V401.73C164.171 399.18 163.001 397.92 160.661 397.92C159.821 397.92 159.071 398.22 158.441 398.82C157.721 399.48 157.301 400.44 157.181 401.67V411H153.761V395.49H157.181V397.29C157.781 396.57 158.471 396 159.221 395.64C160.001 395.25 160.841 395.07 161.771 395.07ZM177.043 395.07C181.123 395.07 183.373 396.69 183.733 399.99H180.403C180.163 399.21 179.803 398.64 179.323 398.34C178.813 398.01 178.033 397.86 176.983 397.86C176.083 397.86 175.393 397.98 174.943 398.25C174.403 398.52 174.163 398.94 174.163 399.54C174.163 400.02 174.553 400.47 175.393 400.83C175.903 401.04 176.923 401.34 178.483 401.73C180.223 402.15 181.543 402.63 182.383 403.2C183.613 403.98 184.243 405.09 184.243 406.47C184.243 409.77 181.903 411.42 177.253 411.42C172.933 411.42 170.623 409.59 170.293 405.96H173.623C173.803 406.95 174.163 407.64 174.673 408.06C175.183 408.42 175.993 408.63 177.133 408.63C179.533 408.63 180.733 407.97 180.733 406.71C180.733 405.99 180.283 405.42 179.383 405C178.903 404.76 177.883 404.49 176.323 404.13C174.493 403.71 173.203 403.26 172.453 402.78C171.253 402.03 170.653 400.98 170.653 399.63C170.653 398.19 171.223 397.08 172.423 396.3C173.593 395.46 175.123 395.07 177.043 395.07ZM186.954 395.49H190.374V404.94C190.374 406.2 190.614 407.1 191.154 407.7C191.694 408.27 192.534 408.57 193.734 408.57C194.484 408.57 195.204 408.24 195.894 407.61C196.584 406.95 197.094 406.08 197.394 404.97V395.49H200.814V411H197.394V408.99C196.074 410.61 194.454 411.42 192.534 411.42C188.814 411.42 186.954 409.32 186.954 405.15V395.49ZM204.715 389.16H208.135V411H204.715V389.16ZM216.892 390.48V395.49H220.342V398.31H216.892V407.07C216.892 407.43 216.952 407.7 217.132 407.91C217.312 408.09 217.552 408.18 217.912 408.18H219.952V411H217.342C215.992 411 215.002 410.64 214.372 409.92C213.772 409.26 213.472 408.33 213.472 407.07V398.31H210.682V395.49H213.472V391.89L216.892 390.48ZM229.952 395.07C232.232 395.07 233.942 395.64 235.022 396.78C235.982 397.77 236.462 399.21 236.462 401.1V411H233.282V408.96C232.682 409.74 231.932 410.31 231.062 410.73C230.072 411.18 228.902 411.42 227.552 411.42C225.932 411.42 224.672 411 223.742 410.19C222.782 409.35 222.302 408.3 222.302 407.01C222.302 405.27 222.962 403.92 224.342 402.99C225.602 402.09 227.372 401.61 229.652 401.55L233.042 401.46V400.86C233.042 398.82 231.932 397.83 229.712 397.83C228.752 397.83 228.002 397.98 227.432 398.34C226.772 398.73 226.322 399.33 226.142 400.14L222.752 399.87C223.082 398.16 223.922 396.9 225.272 396.12C226.412 395.4 227.972 395.07 229.952 395.07ZM233.042 403.92L229.892 404.01C227.162 404.07 225.812 405.03 225.812 406.89C225.812 407.43 226.022 407.88 226.502 408.24C226.982 408.6 227.582 408.81 228.332 408.81C229.652 408.81 230.762 408.42 231.662 407.67C232.562 406.89 233.042 405.9 233.042 404.7V403.92ZM244.93 390.48V395.49H248.38V398.31H244.93V407.07C244.93 407.43 244.99 407.7 245.17 407.91C245.35 408.09 245.59 408.18 245.95 408.18H247.99V411H245.38C244.03 411 243.04 410.64 242.41 409.92C241.81 409.26 241.51 408.33 241.51 407.07V398.31H238.72V395.49H241.51V391.89L244.93 390.48ZM253.249 389.16C253.909 389.16 254.479 389.37 254.929 389.79C255.349 390.21 255.589 390.75 255.589 391.41C255.589 392.07 255.349 392.64 254.899 393.06C254.449 393.48 253.909 393.69 253.249 393.69C252.589 393.69 252.049 393.48 251.599 393.06C251.149 392.61 250.939 392.07 250.939 391.41C250.939 390.75 251.149 390.21 251.599 389.79C252.049 389.37 252.589 389.16 253.249 389.16ZM251.539 395.49H254.959V411H251.539V395.49ZM266.4 395.07C268.74 395.07 270.63 395.82 272.07 397.38C273.48 398.91 274.2 400.86 274.2 403.26C274.2 405.63 273.48 407.58 272.1 409.08C270.66 410.64 268.74 411.42 266.4 411.42C264.03 411.42 262.14 410.64 260.7 409.08C259.29 407.58 258.6 405.63 258.6 403.26C258.6 400.86 259.29 398.91 260.73 397.38C262.14 395.82 264.03 395.07 266.4 395.07ZM266.4 397.86C264.96 397.86 263.88 398.4 263.1 399.54C262.44 400.5 262.11 401.76 262.11 403.26C262.11 404.76 262.44 405.99 263.1 406.95C263.88 408.06 264.96 408.63 266.4 408.63C267.81 408.63 268.92 408.06 269.7 406.95C270.36 405.96 270.72 404.73 270.72 403.26C270.72 401.76 270.36 400.5 269.7 399.54C268.92 398.4 267.81 397.86 266.4 397.86ZM285.199 395.07C289.069 395.07 291.019 397.17 291.019 401.43V411H287.599V401.73C287.599 399.18 286.429 397.92 284.089 397.92C283.249 397.92 282.499 398.22 281.869 398.82C281.149 399.48 280.729 400.44 280.609 401.67V411H277.189V395.49H280.609V397.29C281.209 396.57 281.899 396 282.649 395.64C283.429 395.25 284.269 395.07 285.199 395.07Z" fill="#D10532"/>
<path d="M123.4 108.16C126.16 108.16 128.32 108.76 129.91 109.99C131.44 111.19 132.4 112.96 132.79 115.36H129.25C128.95 113.98 128.29 112.96 127.33 112.27C126.34 111.58 125.02 111.25 123.4 111.25C121.39 111.25 119.8 111.91 118.63 113.29C117.34 114.73 116.71 116.74 116.71 119.38C116.71 121.9 117.28 123.85 118.42 125.2C119.65 126.64 121.57 127.36 124.18 127.36C125.2 127.36 126.16 127.24 127.06 127C127.9 126.76 128.65 126.43 129.37 126.01V121.6H123.7V118.6H132.88V127.66C131.74 128.56 130.45 129.22 128.98 129.7C127.42 130.18 125.71 130.42 123.79 130.42C120.37 130.42 117.73 129.34 115.84 127.18C114.07 125.17 113.2 122.56 113.2 119.38C113.2 116.17 114.07 113.53 115.84 111.46C117.7 109.24 120.22 108.16 123.4 108.16ZM143.796 114.07C144.546 114.07 145.206 114.19 145.746 114.46V117.88C144.966 117.64 144.246 117.55 143.526 117.55C142.626 117.55 141.816 117.88 141.096 118.6C140.256 119.41 139.866 120.46 139.866 121.78V130H136.476V114.49H139.866V116.71C140.286 115.93 140.766 115.33 141.336 114.91C142.026 114.34 142.836 114.07 143.796 114.07ZM154.896 114.07C157.236 114.07 159.126 114.82 160.566 116.38C161.976 117.91 162.696 119.86 162.696 122.26C162.696 124.63 161.976 126.58 160.596 128.08C159.156 129.64 157.236 130.42 154.896 130.42C152.526 130.42 150.636 129.64 149.196 128.08C147.786 126.58 147.096 124.63 147.096 122.26C147.096 119.86 147.786 117.91 149.226 116.38C150.636 114.82 152.526 114.07 154.896 114.07ZM154.896 116.86C153.456 116.86 152.376 117.4 151.596 118.54C150.936 119.5 150.606 120.76 150.606 122.26C150.606 123.76 150.936 124.99 151.596 125.95C152.376 127.06 153.456 127.63 154.896 127.63C156.306 127.63 157.416 127.06 158.196 125.95C158.856 124.96 159.216 123.73 159.216 122.26C159.216 120.76 158.856 119.5 158.196 118.54C157.416 117.4 156.306 116.86 154.896 116.86ZM164.035 114.49H167.815L170.905 125.95L173.965 114.49H177.115L180.175 125.95L183.265 114.49H187.045L181.825 130H178.645L175.555 118.66L172.435 130H169.255L164.035 114.49ZM193.865 109.48V114.49H197.315V117.31H193.865V126.07C193.865 126.43 193.925 126.7 194.105 126.91C194.285 127.09 194.525 127.18 194.885 127.18H196.925V130H194.315C192.965 130 191.975 129.64 191.345 128.92C190.745 128.26 190.445 127.33 190.445 126.07V117.31H187.655V114.49H190.445V110.89L193.865 109.48ZM199.874 108.16H203.294V116.56C203.864 115.69 204.584 115.06 205.424 114.64C206.174 114.25 207.044 114.07 208.034 114.07C209.924 114.07 211.334 114.61 212.264 115.72C213.134 116.77 213.584 118.33 213.584 120.4V130H210.164V121C210.164 119.68 209.894 118.66 209.384 117.97C208.784 117.22 207.914 116.86 206.744 116.86C205.664 116.86 204.824 117.28 204.224 118.12C203.594 118.96 203.294 120.01 203.294 121.33V130H199.874V108.16ZM227.479 108.58H242.929V111.58H230.989V117.52H242.209V120.52H230.989V127H243.439V130H227.479V108.58ZM254.437 114.07C258.307 114.07 260.257 116.17 260.257 120.43V130H256.837V120.73C256.837 118.18 255.667 116.92 253.327 116.92C252.487 116.92 251.737 117.22 251.107 117.82C250.387 118.48 249.967 119.44 249.847 120.67V130H246.427V114.49H249.847V116.29C250.447 115.57 251.137 115 251.887 114.64C252.667 114.25 253.507 114.07 254.437 114.07ZM263.859 108.16H267.279V116.56C267.849 115.69 268.569 115.06 269.409 114.64C270.159 114.25 271.029 114.07 272.019 114.07C273.909 114.07 275.319 114.61 276.249 115.72C277.119 116.77 277.569 118.33 277.569 120.4V130H274.149V121C274.149 119.68 273.879 118.66 273.369 117.97C272.769 117.22 271.899 116.86 270.729 116.86C269.649 116.86 268.809 117.28 268.209 118.12C267.579 118.96 267.279 120.01 267.279 121.33V130H263.859V108.16ZM288.223 114.07C290.503 114.07 292.213 114.64 293.293 115.78C294.253 116.77 294.733 118.21 294.733 120.1V130H291.553V127.96C290.953 128.74 290.203 129.31 289.333 129.73C288.343 130.18 287.173 130.42 285.823 130.42C284.203 130.42 282.943 130 282.013 129.19C281.053 128.35 280.573 127.3 280.573 126.01C280.573 124.27 281.233 122.92 282.613 121.99C283.873 121.09 285.643 120.61 287.923 120.55L291.313 120.46V119.86C291.313 117.82 290.203 116.83 287.983 116.83C287.023 116.83 286.273 116.98 285.703 117.34C285.043 117.73 284.593 118.33 284.413 119.14L281.023 118.87C281.353 117.16 282.193 115.9 283.543 115.12C284.683 114.4 286.243 114.07 288.223 114.07ZM291.313 122.92L288.163 123.01C285.433 123.07 284.083 124.03 284.083 125.89C284.083 126.43 284.293 126.88 284.773 127.24C285.253 127.6 285.853 127.81 286.603 127.81C287.923 127.81 289.033 127.42 289.933 126.67C290.833 125.89 291.313 124.9 291.313 123.7V122.92ZM306.351 114.07C310.221 114.07 312.171 116.17 312.171 120.43V130H308.751V120.73C308.751 118.18 307.581 116.92 305.241 116.92C304.401 116.92 303.651 117.22 303.021 117.82C302.301 118.48 301.881 119.44 301.761 120.67V130H298.341V114.49H301.761V116.29C302.361 115.57 303.051 115 303.801 114.64C304.581 114.25 305.421 114.07 306.351 114.07ZM322.733 114.07C324.743 114.07 326.333 114.52 327.533 115.42C328.763 116.38 329.543 117.82 329.843 119.77H326.453C326.243 118.78 325.823 118.06 325.223 117.58C324.593 117.1 323.753 116.86 322.733 116.86C321.473 116.86 320.483 117.31 319.763 118.27C319.043 119.2 318.683 120.52 318.683 122.2C318.683 123.91 319.013 125.26 319.733 126.22C320.393 127.15 321.383 127.63 322.703 127.63C324.983 127.63 326.243 126.49 326.513 124.24H329.903C329.543 126.34 328.733 127.9 327.503 128.92C326.303 129.91 324.683 130.42 322.673 130.42C320.273 130.42 318.413 129.64 317.093 128.08C315.803 126.58 315.173 124.63 315.173 122.23C315.173 119.89 315.803 117.97 317.063 116.5C318.413 114.88 320.303 114.07 322.733 114.07ZM339.189 114.07C341.739 114.07 343.689 114.91 345.039 116.65C346.269 118.21 346.899 120.4 346.899 123.19H335.289C335.409 124.63 335.799 125.74 336.459 126.49C337.119 127.24 338.079 127.63 339.309 127.63C340.359 127.63 341.199 127.39 341.859 126.91C342.369 126.52 342.819 125.89 343.239 125.02H346.659C346.299 126.46 345.579 127.69 344.499 128.65C343.119 129.82 341.409 130.42 339.339 130.42C337.029 130.42 335.199 129.7 333.849 128.29C332.409 126.82 331.689 124.81 331.689 122.23C331.689 119.92 332.349 118 333.729 116.44C335.049 114.85 336.879 114.07 339.189 114.07ZM339.279 116.86C338.139 116.86 337.269 117.16 336.609 117.82C335.979 118.45 335.559 119.38 335.349 120.61H343.329C343.029 118.09 341.679 116.86 339.279 116.86ZM357.231 114.07C359.511 114.07 361.131 114.91 362.121 116.59C362.841 115.63 363.591 114.97 364.371 114.61C365.061 114.25 365.931 114.07 366.981 114.07C368.571 114.07 369.891 114.58 370.971 115.66C371.991 116.74 372.531 118.12 372.531 119.83V130H369.111V120.43C369.111 119.2 368.841 118.3 368.331 117.76C367.791 117.19 366.951 116.92 365.751 116.92C364.911 116.92 364.221 117.22 363.651 117.88C363.051 118.51 362.781 119.38 362.781 120.52V130H359.361V120.46C359.361 118.09 358.341 116.92 356.301 116.92C355.311 116.92 354.531 117.28 353.931 118.06C353.331 118.78 353.031 119.68 353.031 120.7V130H349.611V114.49H353.031V116.08C354.321 114.73 355.731 114.07 357.231 114.07ZM382.724 114.07C385.274 114.07 387.224 114.91 388.574 116.65C389.804 118.21 390.434 120.4 390.434 123.19H378.824C378.944 124.63 379.334 125.74 379.994 126.49C380.654 127.24 381.614 127.63 382.844 127.63C383.894 127.63 384.734 127.39 385.394 126.91C385.904 126.52 386.354 125.89 386.774 125.02H390.194C389.834 126.46 389.114 127.69 388.034 128.65C386.654 129.82 384.944 130.42 382.874 130.42C380.564 130.42 378.734 129.7 377.384 128.29C375.944 126.82 375.224 124.81 375.224 122.23C375.224 119.92 375.884 118 377.264 116.44C378.584 114.85 380.414 114.07 382.724 114.07ZM382.814 116.86C381.674 116.86 380.804 117.16 380.144 117.82C379.514 118.45 379.094 119.38 378.884 120.61H386.864C386.564 118.09 385.214 116.86 382.814 116.86ZM401.156 114.07C405.026 114.07 406.976 116.17 406.976 120.43V130H403.556V120.73C403.556 118.18 402.386 116.92 400.046 116.92C399.206 116.92 398.456 117.22 397.826 117.82C397.106 118.48 396.686 119.44 396.566 120.67V130H393.146V114.49H396.566V116.29C397.166 115.57 397.856 115 398.606 114.64C399.386 114.25 400.226 114.07 401.156 114.07ZM415.437 109.48V114.49H418.887V117.31H415.437V126.07C415.437 126.43 415.497 126.7 415.677 126.91C415.857 127.09 416.097 127.18 416.457 127.18H418.497V130H415.887C414.537 130 413.547 129.64 412.917 128.92C412.317 128.26 412.017 127.33 412.017 126.07V117.31H409.227V114.49H412.017V110.89L415.437 109.48ZM114.1 150.58H129.55V153.58H117.61V159.52H128.83V162.52H117.61V169H130.06V172H114.1V150.58ZM131.398 156.49H135.118L138.838 167.74L142.558 156.49H146.278L140.548 172H137.128L131.398 156.49ZM155.274 156.07C157.554 156.07 159.264 156.64 160.344 157.78C161.304 158.77 161.784 160.21 161.784 162.1V172H158.604V169.96C158.004 170.74 157.254 171.31 156.384 171.73C155.394 172.18 154.224 172.42 152.874 172.42C151.254 172.42 149.994 172 149.064 171.19C148.104 170.35 147.624 169.3 147.624 168.01C147.624 166.27 148.284 164.92 149.664 163.99C150.924 163.09 152.694 162.61 154.974 162.55L158.364 162.46V161.86C158.364 159.82 157.254 158.83 155.034 158.83C154.074 158.83 153.324 158.98 152.754 159.34C152.094 159.73 151.644 160.33 151.464 161.14L148.074 160.87C148.404 159.16 149.244 157.9 150.594 157.12C151.734 156.4 153.294 156.07 155.274 156.07ZM158.364 164.92L155.214 165.01C152.484 165.07 151.134 166.03 151.134 167.89C151.134 168.43 151.344 168.88 151.824 169.24C152.304 169.6 152.904 169.81 153.654 169.81C154.974 169.81 156.084 169.42 156.984 168.67C157.884 167.89 158.364 166.9 158.364 165.7V164.92ZM165.692 150.16H169.112V172H165.692V150.16ZM173.009 156.49H176.429V165.94C176.429 167.2 176.669 168.1 177.209 168.7C177.749 169.27 178.589 169.57 179.789 169.57C180.539 169.57 181.259 169.24 181.949 168.61C182.639 167.95 183.149 167.08 183.449 165.97V156.49H186.869V172H183.449V169.99C182.129 171.61 180.509 172.42 178.589 172.42C174.869 172.42 173.009 170.32 173.009 166.15V156.49ZM197.52 156.07C199.8 156.07 201.51 156.64 202.59 157.78C203.55 158.77 204.03 160.21 204.03 162.1V172H200.85V169.96C200.25 170.74 199.5 171.31 198.63 171.73C197.64 172.18 196.47 172.42 195.12 172.42C193.5 172.42 192.24 172 191.31 171.19C190.35 170.35 189.87 169.3 189.87 168.01C189.87 166.27 190.53 164.92 191.91 163.99C193.17 163.09 194.94 162.61 197.22 162.55L200.61 162.46V161.86C200.61 159.82 199.5 158.83 197.28 158.83C196.32 158.83 195.57 158.98 195 159.34C194.34 159.73 193.89 160.33 193.71 161.14L190.32 160.87C190.65 159.16 191.49 157.9 192.84 157.12C193.98 156.4 195.54 156.07 197.52 156.07ZM200.61 164.92L197.46 165.01C194.73 165.07 193.38 166.03 193.38 167.89C193.38 168.43 193.59 168.88 194.07 169.24C194.55 169.6 195.15 169.81 195.9 169.81C197.22 169.81 198.33 169.42 199.23 168.67C200.13 167.89 200.61 166.9 200.61 165.7V164.92ZM212.498 151.48V156.49H215.948V159.31H212.498V168.07C212.498 168.43 212.558 168.7 212.738 168.91C212.918 169.09 213.158 169.18 213.518 169.18H215.558V172H212.948C211.598 172 210.608 171.64 209.978 170.92C209.378 170.26 209.078 169.33 209.078 168.07V159.31H206.288V156.49H209.078V152.89L212.498 151.48ZM220.817 150.16C221.477 150.16 222.047 150.37 222.497 150.79C222.917 151.21 223.157 151.75 223.157 152.41C223.157 153.07 222.917 153.64 222.467 154.06C222.017 154.48 221.477 154.69 220.817 154.69C220.157 154.69 219.617 154.48 219.167 154.06C218.717 153.61 218.507 153.07 218.507 152.41C218.507 151.75 218.717 151.21 219.167 150.79C219.617 150.37 220.157 150.16 220.817 150.16ZM219.107 156.49H222.527V172H219.107V156.49ZM233.969 156.07C236.309 156.07 238.199 156.82 239.639 158.38C241.049 159.91 241.769 161.86 241.769 164.26C241.769 166.63 241.049 168.58 239.669 170.08C238.229 171.64 236.309 172.42 233.969 172.42C231.599 172.42 229.709 171.64 228.269 170.08C226.859 168.58 226.169 166.63 226.169 164.26C226.169 161.86 226.859 159.91 228.299 158.38C229.709 156.82 231.599 156.07 233.969 156.07ZM233.969 158.86C232.529 158.86 231.449 159.4 230.669 160.54C230.009 161.5 229.679 162.76 229.679 164.26C229.679 165.76 230.009 166.99 230.669 167.95C231.449 169.06 232.529 169.63 233.969 169.63C235.379 169.63 236.489 169.06 237.269 167.95C237.929 166.96 238.289 165.73 238.289 164.26C238.289 162.76 237.929 161.5 237.269 160.54C236.489 159.4 235.379 158.86 233.969 158.86ZM252.767 156.07C256.637 156.07 258.587 158.17 258.587 162.43V172H255.167V162.73C255.167 160.18 253.997 158.92 251.657 158.92C250.817 158.92 250.067 159.22 249.437 159.82C248.717 160.48 248.297 161.44 248.177 162.67V172H244.757V156.49H248.177V158.29C248.777 157.57 249.467 157 250.217 156.64C250.997 156.25 251.837 156.07 252.767 156.07Z" fill="#213A6C"/>
<path d="M1028.6 193.616C1030.5 193.616 1032.07 194.092 1033.24 195.072C1034.39 196.052 1034.98 197.368 1034.98 199.048C1034.98 201.288 1033.89 202.8 1031.7 203.528C1032.88 203.892 1033.78 204.452 1034.39 205.236C1035.06 206.02 1035.4 207 1035.4 208.176C1035.4 209.996 1034.76 211.48 1033.5 212.628C1032.21 213.804 1030.53 214.392 1028.46 214.392C1026.55 214.392 1025.01 213.888 1023.81 212.936C1022.38 211.76 1021.6 210.052 1021.43 207.812H1023.75C1023.81 209.38 1024.34 210.584 1025.32 211.396C1026.16 212.068 1027.2 212.432 1028.46 212.432C1029.88 212.432 1031.03 212.012 1031.9 211.2C1032.68 210.416 1033.1 209.436 1033.1 208.26C1033.1 207.056 1032.71 206.132 1031.93 205.46C1031.14 204.788 1030.08 204.48 1028.68 204.48H1027.06V202.688H1028.6C1029.94 202.688 1030.95 202.38 1031.65 201.792C1032.35 201.176 1032.71 200.308 1032.71 199.188C1032.71 198.068 1032.35 197.2 1031.68 196.584C1030.95 195.912 1029.91 195.604 1028.62 195.604C1027.28 195.604 1026.24 195.94 1025.49 196.668C1024.7 197.396 1024.26 198.432 1024.12 199.776H1021.85C1022.02 197.844 1022.74 196.332 1023.98 195.24C1025.15 194.148 1026.69 193.616 1028.6 193.616ZM1047.85 193.616H1050.09V201.904C1050.59 200.98 1051.27 200.28 1052.11 199.804C1052.89 199.356 1053.76 199.132 1054.74 199.132C1056.42 199.132 1057.73 199.608 1058.63 200.616C1059.53 201.596 1059.97 203.024 1059.97 204.872V214H1057.73V205.208C1057.73 203.864 1057.4 202.828 1056.78 202.1C1056.11 201.372 1055.19 201.008 1053.98 201.008C1052.86 201.008 1051.94 201.456 1051.21 202.352C1050.45 203.248 1050.09 204.396 1050.09 205.74V214H1047.85V193.616ZM1069.88 199.132C1072.03 199.132 1073.77 199.86 1075.06 201.372C1076.29 202.8 1076.9 204.592 1076.9 206.776C1076.9 208.932 1076.29 210.724 1075.08 212.124C1073.77 213.636 1072.03 214.392 1069.88 214.392C1067.69 214.392 1065.98 213.636 1064.7 212.124C1063.46 210.724 1062.85 208.932 1062.85 206.776C1062.85 204.592 1063.46 202.8 1064.7 201.372C1065.98 199.86 1067.69 199.132 1069.88 199.132ZM1069.88 201.008C1068.34 201.008 1067.13 201.596 1066.29 202.772C1065.51 203.836 1065.14 205.152 1065.14 206.776C1065.14 208.372 1065.51 209.688 1066.29 210.752C1067.13 211.928 1068.34 212.516 1069.88 212.516C1071.39 212.516 1072.59 211.928 1073.49 210.752C1074.24 209.688 1074.64 208.344 1074.64 206.776C1074.64 205.152 1074.24 203.836 1073.49 202.772C1072.59 201.596 1071.39 201.008 1069.88 201.008ZM1079.81 199.524H1082.05V208.372C1082.05 209.744 1082.33 210.78 1082.92 211.452C1083.51 212.124 1084.46 212.488 1085.78 212.488C1086.73 212.488 1087.6 212.096 1088.35 211.368C1089.14 210.584 1089.61 209.576 1089.78 208.344V199.524H1092.02V214H1089.78V211.76C1088.61 213.496 1087.04 214.392 1085.08 214.392C1081.55 214.392 1079.81 212.404 1079.81 208.484V199.524ZM1101.84 199.132C1102.62 199.132 1103.29 199.244 1103.83 199.468V201.708C1103.1 201.484 1102.37 201.4 1101.67 201.4C1100.55 201.4 1099.6 201.876 1098.84 202.884C1098.06 203.836 1097.69 204.984 1097.69 206.328V214H1095.48V199.524H1097.69V202.044C1098.09 201.204 1098.59 200.532 1099.21 200.056C1099.96 199.44 1100.83 199.132 1101.84 199.132ZM1110.83 199.132C1114.42 199.132 1116.38 200.616 1116.77 203.64H1114.58C1114.39 202.744 1114.02 202.072 1113.46 201.68C1112.85 201.232 1111.95 201.008 1110.8 201.008C1109.8 201.008 1109.01 201.176 1108.45 201.568C1107.84 201.932 1107.53 202.436 1107.53 203.08C1107.53 203.696 1107.92 204.228 1108.76 204.648C1109.29 204.9 1110.3 205.208 1111.76 205.6C1113.49 206.02 1114.72 206.468 1115.48 206.944C1116.63 207.672 1117.22 208.652 1117.22 209.912C1117.22 212.88 1115.17 214.392 1111.08 214.392C1107.28 214.392 1105.2 212.712 1104.87 209.38H1107.05C1107.22 210.528 1107.64 211.34 1108.26 211.844C1108.87 212.292 1109.8 212.516 1111.03 212.516C1113.6 212.516 1114.92 211.676 1114.92 210.052C1114.92 209.24 1114.44 208.624 1113.55 208.176C1113.07 207.952 1112.04 207.644 1110.47 207.252C1108.76 206.832 1107.56 206.412 1106.88 205.964C1105.76 205.292 1105.23 204.368 1105.23 203.136C1105.23 201.904 1105.76 200.952 1106.86 200.224C1107.86 199.496 1109.21 199.132 1110.83 199.132ZM1134.29 199.132C1137.88 199.132 1139.84 200.616 1140.23 203.64H1138.05C1137.85 202.744 1137.49 202.072 1136.93 201.68C1136.31 201.232 1135.41 201.008 1134.27 201.008C1133.26 201.008 1132.47 201.176 1131.91 201.568C1131.3 201.932 1130.99 202.436 1130.99 203.08C1130.99 203.696 1131.38 204.228 1132.22 204.648C1132.75 204.9 1133.76 205.208 1135.22 205.6C1136.95 206.02 1138.19 206.468 1138.94 206.944C1140.09 207.672 1140.68 208.652 1140.68 209.912C1140.68 212.88 1138.63 214.392 1134.55 214.392C1130.74 214.392 1128.67 212.712 1128.33 209.38H1130.51C1130.68 210.528 1131.1 211.34 1131.72 211.844C1132.33 212.292 1133.26 212.516 1134.49 212.516C1137.07 212.516 1138.38 211.676 1138.38 210.052C1138.38 209.24 1137.91 208.624 1137.01 208.176C1136.53 207.952 1135.5 207.644 1133.93 207.252C1132.22 206.832 1131.02 206.412 1130.35 205.964C1129.23 205.292 1128.69 204.368 1128.69 203.136C1128.69 201.904 1129.23 200.952 1130.32 200.224C1131.33 199.496 1132.67 199.132 1134.29 199.132ZM1149.27 199.132C1151.59 199.132 1153.36 199.916 1154.53 201.484C1155.6 202.884 1156.16 204.872 1156.21 207.392H1144.79C1144.9 209.016 1145.32 210.276 1146.11 211.172C1146.89 212.068 1147.98 212.516 1149.35 212.516C1150.53 212.516 1151.51 212.208 1152.24 211.62C1152.85 211.116 1153.33 210.36 1153.69 209.352H1155.93C1155.6 210.752 1154.95 211.872 1153.97 212.768C1152.77 213.832 1151.23 214.392 1149.35 214.392C1147.28 214.392 1145.6 213.692 1144.37 212.348C1143.08 210.948 1142.47 209.1 1142.47 206.748C1142.47 204.62 1143.05 202.828 1144.29 201.4C1145.52 199.888 1147.17 199.132 1149.27 199.132ZM1149.33 201.008C1148.04 201.008 1147 201.428 1146.22 202.268C1145.43 203.108 1144.99 204.228 1144.85 205.656H1153.89C1153.61 202.548 1152.07 201.008 1149.33 201.008ZM1163.96 199.132C1167.55 199.132 1169.51 200.616 1169.9 203.64H1167.71C1167.52 202.744 1167.15 202.072 1166.59 201.68C1165.98 201.232 1165.08 201.008 1163.93 201.008C1162.93 201.008 1162.14 201.176 1161.58 201.568C1160.97 201.932 1160.66 202.436 1160.66 203.08C1160.66 203.696 1161.05 204.228 1161.89 204.648C1162.42 204.9 1163.43 205.208 1164.89 205.6C1166.62 206.02 1167.85 206.468 1168.61 206.944C1169.76 207.672 1170.35 208.652 1170.35 209.912C1170.35 212.88 1168.3 214.392 1164.21 214.392C1160.41 214.392 1158.33 212.712 1158 209.38H1160.18C1160.35 210.528 1160.77 211.34 1161.39 211.844C1162 212.292 1162.93 212.516 1164.16 212.516C1166.73 212.516 1168.05 211.676 1168.05 210.052C1168.05 209.24 1167.57 208.624 1166.68 208.176C1166.2 207.952 1165.17 207.644 1163.6 207.252C1161.89 206.832 1160.69 206.412 1160.01 205.964C1158.89 205.292 1158.36 204.368 1158.36 203.136C1158.36 201.904 1158.89 200.952 1159.99 200.224C1160.99 199.496 1162.34 199.132 1163.96 199.132ZM1178.1 199.132C1181.68 199.132 1183.64 200.616 1184.03 203.64H1181.85C1181.65 202.744 1181.29 202.072 1180.73 201.68C1180.11 201.232 1179.22 201.008 1178.07 201.008C1177.06 201.008 1176.28 201.176 1175.72 201.568C1175.1 201.932 1174.79 202.436 1174.79 203.08C1174.79 203.696 1175.19 204.228 1176.03 204.648C1176.56 204.9 1177.57 205.208 1179.02 205.6C1180.76 206.02 1181.99 206.468 1182.75 206.944C1183.89 207.672 1184.48 208.652 1184.48 209.912C1184.48 212.88 1182.44 214.392 1178.35 214.392C1174.54 214.392 1172.47 212.712 1172.13 209.38H1174.32C1174.49 210.528 1174.91 211.34 1175.52 211.844C1176.14 212.292 1177.06 212.516 1178.29 212.516C1180.87 212.516 1182.19 211.676 1182.19 210.052C1182.19 209.24 1181.71 208.624 1180.81 208.176C1180.34 207.952 1179.3 207.644 1177.73 207.252C1176.03 206.832 1174.82 206.412 1174.15 205.964C1173.03 205.292 1172.5 204.368 1172.5 203.136C1172.5 201.904 1173.03 200.952 1174.12 200.224C1175.13 199.496 1176.47 199.132 1178.1 199.132ZM1188.96 194.064C1189.44 194.064 1189.83 194.204 1190.16 194.54C1190.5 194.82 1190.67 195.212 1190.67 195.716C1190.67 196.192 1190.5 196.584 1190.16 196.92C1189.83 197.228 1189.44 197.396 1188.96 197.396C1188.48 197.396 1188.09 197.228 1187.76 196.92C1187.42 196.584 1187.28 196.192 1187.28 195.716C1187.28 195.212 1187.42 194.82 1187.76 194.54C1188.09 194.204 1188.48 194.064 1188.96 194.064ZM1187.84 199.524H1190.08V214H1187.84V199.524ZM1200.74 199.132C1202.9 199.132 1204.64 199.86 1205.92 201.372C1207.16 202.8 1207.77 204.592 1207.77 206.776C1207.77 208.932 1207.16 210.724 1205.95 212.124C1204.64 213.636 1202.9 214.392 1200.74 214.392C1198.56 214.392 1196.85 213.636 1195.56 212.124C1194.33 210.724 1193.72 208.932 1193.72 206.776C1193.72 204.592 1194.33 202.8 1195.56 201.372C1196.85 199.86 1198.56 199.132 1200.74 199.132ZM1200.74 201.008C1199.2 201.008 1198 201.596 1197.16 202.772C1196.38 203.836 1196.01 205.152 1196.01 206.776C1196.01 208.372 1196.38 209.688 1197.16 210.752C1198 211.928 1199.2 212.516 1200.74 212.516C1202.26 212.516 1203.46 211.928 1204.36 210.752C1205.11 209.688 1205.5 208.344 1205.5 206.776C1205.5 205.152 1205.11 203.836 1204.36 202.772C1203.46 201.596 1202.26 201.008 1200.74 201.008ZM1217.46 199.132C1221.04 199.132 1222.86 201.12 1222.86 205.096V214H1220.62V205.264C1220.62 202.436 1219.33 201.036 1216.81 201.036C1215.81 201.036 1214.94 201.4 1214.21 202.128C1213.43 202.912 1213.01 203.948 1212.92 205.264V214H1210.68V199.524H1212.92V201.652C1213.43 200.84 1214.07 200.224 1214.85 199.804C1215.64 199.356 1216.51 199.132 1217.46 199.132Z" fill="#213A6C"/>
<path d="M1026.44 433.008H1028.23V453H1025.94V435.808C1024.68 437.096 1023.11 437.992 1021.23 438.552V436.256C1022.13 436.004 1023.08 435.612 1024.03 435.052C1024.98 434.436 1025.77 433.764 1026.44 433.008ZM1039.92 432.616C1041.77 432.616 1043.28 433.148 1044.48 434.212C1045.66 435.276 1046.27 436.704 1046.27 438.44C1046.27 440.176 1045.6 441.744 1044.31 443.144C1043.61 443.872 1042.24 444.964 1040.17 446.364C1037.62 448.072 1036.17 449.612 1035.8 450.956H1046.3V453H1032.97C1032.97 451.18 1033.62 449.528 1034.96 448.044C1035.75 447.148 1037.17 445.944 1039.3 444.488C1040.87 443.368 1041.91 442.556 1042.44 441.996C1043.45 440.904 1043.98 439.7 1043.98 438.412C1043.98 437.18 1043.61 436.256 1042.89 435.584C1042.16 434.912 1041.12 434.576 1039.83 434.576C1038.46 434.576 1037.4 435.024 1036.67 435.976C1035.89 436.872 1035.47 438.216 1035.44 439.98H1033.14C1033.14 437.74 1033.79 435.948 1035.02 434.632C1036.25 433.288 1037.9 432.616 1039.92 432.616ZM1059.09 432.616H1061.33V440.904C1061.83 439.98 1062.5 439.28 1063.34 438.804C1064.13 438.356 1065 438.132 1065.98 438.132C1067.66 438.132 1068.97 438.608 1069.87 439.616C1070.76 440.596 1071.21 442.024 1071.21 443.872V453H1068.97V444.208C1068.97 442.864 1068.64 441.828 1068.02 441.1C1067.35 440.372 1066.42 440.008 1065.22 440.008C1064.1 440.008 1063.18 440.456 1062.45 441.352C1061.69 442.248 1061.33 443.396 1061.33 444.74V453H1059.09V432.616ZM1081.11 438.132C1083.27 438.132 1085.01 438.86 1086.29 440.372C1087.53 441.8 1088.14 443.592 1088.14 445.776C1088.14 447.932 1087.53 449.724 1086.32 451.124C1085.01 452.636 1083.27 453.392 1081.11 453.392C1078.93 453.392 1077.22 452.636 1075.93 451.124C1074.7 449.724 1074.09 447.932 1074.09 445.776C1074.09 443.592 1074.7 441.8 1075.93 440.372C1077.22 438.86 1078.93 438.132 1081.11 438.132ZM1081.11 440.008C1079.57 440.008 1078.37 440.596 1077.53 441.772C1076.75 442.836 1076.38 444.152 1076.38 445.776C1076.38 447.372 1076.75 448.688 1077.53 449.752C1078.37 450.928 1079.57 451.516 1081.11 451.516C1082.63 451.516 1083.83 450.928 1084.73 449.752C1085.48 448.688 1085.87 447.344 1085.87 445.776C1085.87 444.152 1085.48 442.836 1084.73 441.772C1083.83 440.596 1082.63 440.008 1081.11 440.008ZM1091.05 438.524H1093.29V447.372C1093.29 448.744 1093.57 449.78 1094.16 450.452C1094.75 451.124 1095.7 451.488 1097.02 451.488C1097.97 451.488 1098.84 451.096 1099.59 450.368C1100.38 449.584 1100.85 448.576 1101.02 447.344V438.524H1103.26V453H1101.02V450.76C1099.84 452.496 1098.28 453.392 1096.32 453.392C1092.79 453.392 1091.05 451.404 1091.05 447.484V438.524ZM1113.08 438.132C1113.86 438.132 1114.53 438.244 1115.06 438.468V440.708C1114.34 440.484 1113.61 440.4 1112.91 440.4C1111.79 440.4 1110.84 440.876 1110.08 441.884C1109.3 442.836 1108.93 443.984 1108.93 445.328V453H1106.72V438.524H1108.93V441.044C1109.32 440.204 1109.83 439.532 1110.44 439.056C1111.2 438.44 1112.07 438.132 1113.08 438.132ZM1122.07 438.132C1125.65 438.132 1127.61 439.616 1128.01 442.64H1125.82C1125.63 441.744 1125.26 441.072 1124.7 440.68C1124.09 440.232 1123.19 440.008 1122.04 440.008C1121.03 440.008 1120.25 440.176 1119.69 440.568C1119.07 440.932 1118.77 441.436 1118.77 442.08C1118.77 442.696 1119.16 443.228 1120 443.648C1120.53 443.9 1121.54 444.208 1122.99 444.6C1124.73 445.02 1125.96 445.468 1126.72 445.944C1127.87 446.672 1128.45 447.652 1128.45 448.912C1128.45 451.88 1126.41 453.392 1122.32 453.392C1118.51 453.392 1116.44 451.712 1116.11 448.38H1118.29C1118.46 449.528 1118.88 450.34 1119.49 450.844C1120.11 451.292 1121.03 451.516 1122.27 451.516C1124.84 451.516 1126.16 450.676 1126.16 449.052C1126.16 448.24 1125.68 447.624 1124.79 447.176C1124.31 446.952 1123.27 446.644 1121.71 446.252C1120 445.832 1118.79 445.412 1118.12 444.964C1117 444.292 1116.47 443.368 1116.47 442.136C1116.47 440.904 1117 439.952 1118.09 439.224C1119.1 438.496 1120.45 438.132 1122.07 438.132ZM1140.32 430.04H1142.31L1132.4 455.8H1130.38L1140.32 430.04ZM1143.49 438.524H1145.92L1150.35 449.948L1154.63 438.524H1157.1L1149.17 458.544H1146.74L1149.23 452.664L1143.49 438.524ZM1164.94 438.132C1167.26 438.132 1169.03 438.916 1170.2 440.484C1171.27 441.884 1171.83 443.872 1171.88 446.392H1160.46C1160.57 448.016 1160.99 449.276 1161.77 450.172C1162.56 451.068 1163.65 451.516 1165.02 451.516C1166.2 451.516 1167.18 451.208 1167.91 450.62C1168.52 450.116 1169 449.36 1169.36 448.352H1171.6C1171.27 449.752 1170.62 450.872 1169.64 451.768C1168.44 452.832 1166.9 453.392 1165.02 453.392C1162.95 453.392 1161.27 452.692 1160.04 451.348C1158.75 449.948 1158.13 448.1 1158.13 445.748C1158.13 443.62 1158.72 441.828 1159.95 440.4C1161.19 438.888 1162.84 438.132 1164.94 438.132ZM1164.99 440.008C1163.71 440.008 1162.67 440.428 1161.89 441.268C1161.1 442.108 1160.65 443.228 1160.51 444.656H1169.56C1169.28 441.548 1167.74 440.008 1164.99 440.008ZM1180.81 438.132C1182.88 438.132 1184.39 438.664 1185.4 439.756C1186.24 440.708 1186.69 442.024 1186.69 443.704V453H1184.59V450.564C1184.03 451.348 1183.27 451.992 1182.37 452.496C1181.31 453.084 1180.11 453.392 1178.76 453.392C1177.31 453.392 1176.16 453.028 1175.29 452.3C1174.39 451.544 1173.95 450.564 1173.95 449.388C1173.95 447.736 1174.59 446.504 1175.93 445.664C1177.11 444.88 1178.79 444.46 1180.97 444.432L1184.45 444.376V443.62C1184.45 441.184 1183.19 439.98 1180.67 439.98C1179.6 439.98 1178.73 440.176 1178.06 440.624C1177.31 441.072 1176.83 441.772 1176.61 442.696L1174.39 442.528C1174.7 441.016 1175.46 439.868 1176.63 439.14C1177.7 438.468 1179.07 438.132 1180.81 438.132ZM1184.45 446.056L1181.11 446.112C1177.87 446.168 1176.24 447.232 1176.24 449.332C1176.24 450.004 1176.49 450.536 1177.05 450.984C1177.61 451.404 1178.34 451.628 1179.24 451.628C1180.61 451.628 1181.81 451.18 1182.88 450.284C1183.91 449.416 1184.45 448.408 1184.45 447.288V446.056ZM1196.5 438.132C1197.29 438.132 1197.96 438.244 1198.49 438.468V440.708C1197.76 440.484 1197.03 440.4 1196.33 440.4C1195.21 440.4 1194.26 440.876 1193.51 441.884C1192.72 442.836 1192.36 443.984 1192.36 445.328V453H1190.15V438.524H1192.36V441.044C1192.75 440.204 1193.25 439.532 1193.87 439.056C1194.63 438.44 1195.49 438.132 1196.5 438.132Z" fill="#213A6C"/>
<path d="M122.752 433.008H124.908V446.588H128.156V448.464H124.908V453H122.724V448.464H112.672V446.28L122.752 433.008ZM122.64 436.004L114.604 446.588H122.724V436.004H122.64ZM139.849 432.616H142.089V440.904C142.593 439.98 143.265 439.28 144.105 438.804C144.889 438.356 145.757 438.132 146.737 438.132C148.417 438.132 149.733 438.608 150.629 439.616C151.525 440.596 151.973 442.024 151.973 443.872V453H149.733V444.208C149.733 442.864 149.397 441.828 148.781 441.1C148.109 440.372 147.185 440.008 145.981 440.008C144.861 440.008 143.937 440.456 143.209 441.352C142.453 442.248 142.089 443.396 142.089 444.74V453H139.849V432.616ZM161.876 438.132C164.032 438.132 165.768 438.86 167.056 440.372C168.288 441.8 168.904 443.592 168.904 445.776C168.904 447.932 168.288 449.724 167.084 451.124C165.768 452.636 164.032 453.392 161.876 453.392C159.692 453.392 157.984 452.636 156.696 451.124C155.464 449.724 154.848 447.932 154.848 445.776C154.848 443.592 155.464 441.8 156.696 440.372C157.984 438.86 159.692 438.132 161.876 438.132ZM161.876 440.008C160.336 440.008 159.132 440.596 158.292 441.772C157.508 442.836 157.144 444.152 157.144 445.776C157.144 447.372 157.508 448.688 158.292 449.752C159.132 450.928 160.336 451.516 161.876 451.516C163.388 451.516 164.592 450.928 165.488 449.752C166.244 448.688 166.636 447.344 166.636 445.776C166.636 444.152 166.244 442.836 165.488 441.772C164.592 440.596 163.388 440.008 161.876 440.008ZM171.814 438.524H174.054V447.372C174.054 448.744 174.334 449.78 174.922 450.452C175.51 451.124 176.462 451.488 177.778 451.488C178.73 451.488 179.598 451.096 180.354 450.368C181.138 449.584 181.614 448.576 181.782 447.344V438.524H184.022V453H181.782V450.76C180.606 452.496 179.038 453.392 177.078 453.392C173.55 453.392 171.814 451.404 171.814 447.484V438.524ZM193.838 438.132C194.622 438.132 195.294 438.244 195.826 438.468V440.708C195.098 440.484 194.37 440.4 193.67 440.4C192.55 440.4 191.598 440.876 190.842 441.884C190.058 442.836 189.694 443.984 189.694 445.328V453H187.482V438.524H189.694V441.044C190.086 440.204 190.59 439.532 191.206 439.056C191.962 438.44 192.83 438.132 193.838 438.132ZM202.833 438.132C206.417 438.132 208.377 439.616 208.769 442.64H206.585C206.389 441.744 206.025 441.072 205.465 440.68C204.849 440.232 203.953 440.008 202.805 440.008C201.797 440.008 201.013 440.176 200.453 440.568C199.837 440.932 199.529 441.436 199.529 442.08C199.529 442.696 199.921 443.228 200.761 443.648C201.293 443.9 202.301 444.208 203.757 444.6C205.493 445.02 206.725 445.468 207.481 445.944C208.629 446.672 209.217 447.652 209.217 448.912C209.217 451.88 207.173 453.392 203.085 453.392C199.277 453.392 197.205 451.712 196.869 448.38H199.053C199.221 449.528 199.641 450.34 200.257 450.844C200.873 451.292 201.797 451.516 203.029 451.516C205.605 451.516 206.921 450.676 206.921 449.052C206.921 448.24 206.445 447.624 205.549 447.176C205.073 446.952 204.037 446.644 202.469 446.252C200.761 445.832 199.557 445.412 198.885 444.964C197.765 444.292 197.233 443.368 197.233 442.136C197.233 440.904 197.765 439.952 198.857 439.224C199.865 438.496 201.209 438.132 202.833 438.132ZM221.085 430.04H223.073L213.161 455.8H211.145L221.085 430.04ZM224.249 438.524H226.685L231.109 449.948L235.393 438.524H237.857L229.933 458.544H227.497L229.989 452.664L224.249 438.524ZM245.7 438.132C248.024 438.132 249.788 438.916 250.964 440.484C252.028 441.884 252.588 443.872 252.644 446.392H241.22C241.332 448.016 241.752 449.276 242.536 450.172C243.32 451.068 244.412 451.516 245.784 451.516C246.96 451.516 247.94 451.208 248.668 450.62C249.284 450.116 249.76 449.36 250.124 448.352H252.364C252.028 449.752 251.384 450.872 250.404 451.768C249.2 452.832 247.66 453.392 245.784 453.392C243.712 453.392 242.032 452.692 240.8 451.348C239.512 449.948 238.896 448.1 238.896 445.748C238.896 443.62 239.484 441.828 240.716 440.4C241.948 438.888 243.6 438.132 245.7 438.132ZM245.756 440.008C244.468 440.008 243.432 440.428 242.648 441.268C241.864 442.108 241.416 443.228 241.276 444.656H250.32C250.04 441.548 248.5 440.008 245.756 440.008ZM261.567 438.132C263.639 438.132 265.151 438.664 266.159 439.756C266.999 440.708 267.447 442.024 267.447 443.704V453H265.347V450.564C264.787 451.348 264.031 451.992 263.135 452.496C262.071 453.084 260.867 453.392 259.523 453.392C258.067 453.392 256.919 453.028 256.051 452.3C255.155 451.544 254.707 450.564 254.707 449.388C254.707 447.736 255.351 446.504 256.695 445.664C257.871 444.88 259.551 444.46 261.735 444.432L265.207 444.376V443.62C265.207 441.184 263.947 439.98 261.427 439.98C260.363 439.98 259.495 440.176 258.823 440.624C258.067 441.072 257.591 441.772 257.367 442.696L255.155 442.528C255.463 441.016 256.219 439.868 257.395 439.14C258.459 438.468 259.831 438.132 261.567 438.132ZM265.207 446.056L261.875 446.112C258.627 446.168 257.003 447.232 257.003 449.332C257.003 450.004 257.255 450.536 257.815 450.984C258.375 451.404 259.103 451.628 259.999 451.628C261.371 451.628 262.575 451.18 263.639 450.284C264.675 449.416 265.207 448.408 265.207 447.288V446.056ZM277.264 438.132C278.048 438.132 278.72 438.244 279.252 438.468V440.708C278.524 440.484 277.796 440.4 277.096 440.4C275.976 440.4 275.024 440.876 274.268 441.884C273.484 442.836 273.12 443.984 273.12 445.328V453H270.908V438.524H273.12V441.044C273.512 440.204 274.016 439.532 274.632 439.056C275.388 438.44 276.256 438.132 277.264 438.132Z" fill="#213A6C"/>
<mask id="path-8-inside-1_0_1" fill="white">
<path fill-rule="evenodd" clip-rule="evenodd" d="M713.887 61.0371V200.321C715.287 200.243 716.696 200.204 718.114 200.204C763.178 200.204 799.71 239.9 799.71 288.869C799.71 291.759 799.583 294.618 799.334 297.438H926.838C926.945 294.448 927 291.444 927 288.425C927 162.822 833.295 61 717.705 61C716.43 61 715.157 61.0124 713.887 61.0371Z"/>
</mask>
<path fill-rule="evenodd" clip-rule="evenodd" d="M713.887 61.0371V200.321C715.287 200.243 716.696 200.204 718.114 200.204C763.178 200.204 799.71 239.9 799.71 288.869C799.71 291.759 799.583 294.618 799.334 297.438H926.838C926.945 294.448 927 291.444 927 288.425C927 162.822 833.295 61 717.705 61C716.43 61 715.157 61.0124 713.887 61.0371Z" fill="#213A6C" fill-opacity="0.9"/>
<path d="M713.887 200.321H712.887V201.378L713.942 201.319L713.887 200.321ZM713.887 61.0371L713.867 60.0373L712.887 60.0563V61.0371H713.887ZM799.334 297.438L798.338 297.35L798.242 298.438H799.334V297.438ZM926.838 297.438V298.438H927.803L927.838 297.473L926.838 297.438ZM714.887 200.321V61.0371H712.887V200.321H714.887ZM718.114 199.204C716.678 199.204 715.25 199.244 713.831 199.322L713.942 201.319C715.324 201.243 716.715 201.204 718.114 201.204V199.204ZM800.71 288.869C800.71 239.428 763.807 199.204 718.114 199.204V201.204C762.549 201.204 798.71 240.373 798.71 288.869H800.71ZM800.33 297.526C800.581 294.676 800.71 291.789 800.71 288.869H798.71C798.71 291.73 798.584 294.559 798.338 297.35L800.33 297.526ZM926.838 296.438H799.334V298.438H926.838V296.438ZM927.838 297.473C927.945 294.472 928 291.456 928 288.425H926C926 291.432 925.946 294.424 925.839 297.402L927.838 297.473ZM928 288.425C928 162.349 833.924 60 717.705 60V62C832.666 62 926 163.294 926 288.425H928ZM717.705 60C716.423 60 715.144 60.0125 713.867 60.0373L713.906 62.0369C715.17 62.0123 716.436 62 717.705 62V60Z" fill="white" mask="url(#path-8-inside-1_0_1)"/>
<mask id="path-10-inside-2_0_1" fill="white">
<path fill-rule="evenodd" clip-rule="evenodd" d="M716.506 515.851C715.632 515.85 714.759 515.843 713.887 515.83L713.887 377.495C714.707 377.521 715.53 377.534 716.357 377.534C758.984 377.534 794.017 342.386 798.004 297.438L926.998 297.438C922.624 418.772 830.311 515.704 717.023 515.851L716.506 515.851Z"/>
</mask>
<path fill-rule="evenodd" clip-rule="evenodd" d="M716.506 515.851C715.632 515.85 714.759 515.843 713.887 515.83L713.887 377.495C714.707 377.521 715.53 377.534 716.357 377.534C758.984 377.534 794.017 342.386 798.004 297.438L926.998 297.438C922.624 418.772 830.311 515.704 717.023 515.851L716.506 515.851Z" fill="#D10532"/>
<path d="M713.887 515.83L712.887 515.83L712.887 516.816L713.873 516.83L713.887 515.83ZM716.506 515.851L716.504 516.851L716.506 516.851L716.506 515.851ZM713.887 377.495L713.919 376.495L712.887 376.462L712.887 377.495L713.887 377.495ZM798.004 297.438L798.004 296.438L797.089 296.438L797.008 297.349L798.004 297.438ZM926.998 297.438L927.997 297.474L928.035 296.438L926.998 296.438L926.998 297.438ZM717.023 515.851L717.023 516.851L717.024 516.851L717.023 515.851ZM713.873 516.83C714.749 516.843 715.626 516.85 716.504 516.851L716.507 514.851C715.637 514.85 714.769 514.843 713.902 514.83L713.873 516.83ZM714.887 515.83L714.887 377.495L712.887 377.495L712.887 515.83L714.887 515.83ZM713.855 378.494C714.686 378.521 715.52 378.534 716.357 378.534L716.357 376.534C715.541 376.534 714.729 376.521 713.919 376.495L713.855 378.494ZM716.357 378.534C759.569 378.534 794.973 342.92 799 297.526L797.008 297.349C793.06 341.851 758.399 376.534 716.357 376.534L716.357 378.534ZM798.004 298.438L926.998 298.438L926.998 296.438L798.004 296.438L798.004 298.438ZM717.024 516.851C830.92 516.703 923.607 419.272 927.997 297.474L925.999 297.402C921.641 418.271 829.702 514.705 717.021 514.851L717.024 516.851ZM717.023 514.851L716.506 514.851L716.506 516.851L717.023 516.851L717.023 514.851Z" fill="white" mask="url(#path-10-inside-2_0_1)"/>
<mask id="path-12-inside-3_0_1" fill="white">
<path fill-rule="evenodd" clip-rule="evenodd" d="M714.047 515.814L714.047 379.18C668.928 379.018 632.063 343.113 629.232 297.768L496.054 297.768C498.747 418.413 595.249 515.417 714.047 515.814Z"/>
</mask>
<path fill-rule="evenodd" clip-rule="evenodd" d="M714.047 515.814L714.047 379.18C668.928 379.018 632.063 343.113 629.232 297.768L496.054 297.768C498.747 418.413 595.249 515.417 714.047 515.814Z" fill="#213A6C" fill-opacity="0.9"/>
<path d="M714.047 379.18L715.047 379.18L715.047 378.183L714.05 378.18L714.047 379.18ZM714.047 515.814L714.044 516.814L715.047 516.818L715.047 515.814L714.047 515.814ZM629.232 297.768L630.23 297.706L630.172 296.768L629.232 296.768L629.232 297.768ZM496.054 297.768L496.054 296.768L495.031 296.768L495.054 297.79L496.054 297.768ZM713.047 379.18L713.047 515.814L715.047 515.814L715.047 379.18L713.047 379.18ZM628.234 297.83C631.096 343.68 668.377 380.016 714.043 380.18L714.05 378.18C669.478 378.02 633.029 342.545 630.23 297.706L628.234 297.83ZM496.054 298.768L629.232 298.768L629.232 296.768L496.054 296.768L496.054 298.768ZM495.054 297.79C497.759 418.958 594.684 516.415 714.044 516.814L714.05 514.814C595.814 514.419 499.735 417.868 497.054 297.746L495.054 297.79Z" fill="white" mask="url(#path-12-inside-3_0_1)"/>
<mask id="path-14-inside-4_0_1" fill="white">
<path fill-rule="evenodd" clip-rule="evenodd" d="M714.047 61.0008C593.57 61.3153 495.998 162.53 495.998 287.339C495.998 290.835 496.075 294.312 496.226 297.768L630.444 297.768C630.021 294.206 629.804 290.578 629.804 286.898C629.804 238.504 667.43 199.209 714.047 198.662L714.047 61.0008Z"/>
</mask>
<path fill-rule="evenodd" clip-rule="evenodd" d="M714.047 61.0008C593.57 61.3153 495.998 162.53 495.998 287.339C495.998 290.835 496.075 294.312 496.226 297.768L630.444 297.768C630.021 294.206 629.804 290.578 629.804 286.898C629.804 238.504 667.43 199.209 714.047 198.662L714.047 61.0008Z" fill="#D10532"/>
<path d="M714.047 61.0008L715.047 61.0008L715.047 59.9982L714.044 60.0008L714.047 61.0008ZM496.226 297.768L495.227 297.812L495.269 298.768L496.226 298.768L496.226 297.768ZM630.444 297.768L630.444 298.768L631.57 298.768L631.437 297.651L630.444 297.768ZM714.047 198.662L714.059 199.662L715.047 199.651L715.047 198.662L714.047 198.662ZM714.044 60.0008C592.984 60.3169 494.998 162.011 494.998 287.339L496.998 287.339C496.998 163.048 594.156 62.3138 714.05 62.0008L714.044 60.0008ZM494.998 287.339C494.998 290.849 495.075 294.341 495.227 297.812L497.225 297.725C497.074 294.282 496.998 290.82 496.998 287.339L494.998 287.339ZM630.444 296.768L496.226 296.768L496.226 298.768L630.444 298.768L630.444 296.768ZM628.804 286.898C628.804 290.618 629.024 294.285 629.451 297.886L631.437 297.651C631.019 294.127 630.804 290.539 630.804 286.898L628.804 286.898ZM714.035 197.662C666.84 198.216 628.804 237.988 628.804 286.898L630.804 286.898C630.804 239.02 668.021 200.202 714.059 199.662L714.035 197.662ZM713.047 61.0008L713.047 198.662L715.047 198.662L715.047 61.0008L713.047 61.0008Z" fill="white" mask="url(#path-14-inside-4_0_1)"/>
<path d="M599.516 162.74H604.796V205.58H597.776V171.2C595.196 173.54 591.956 175.28 587.996 176.42V169.46C589.916 168.98 591.956 168.14 594.116 166.94C596.276 165.62 598.076 164.24 599.516 162.74Z" fill="white"/>
<path d="M118.596 193.616C120.5 193.616 122.068 194.092 123.244 195.072C124.392 196.052 124.98 197.368 124.98 199.048C124.98 201.288 123.888 202.8 121.704 203.528C122.88 203.892 123.776 204.452 124.392 205.236C125.064 206.02 125.4 207 125.4 208.176C125.4 209.996 124.756 211.48 123.496 212.628C122.208 213.804 120.528 214.392 118.456 214.392C116.552 214.392 115.012 213.888 113.808 212.936C112.38 211.76 111.596 210.052 111.428 207.812H113.752C113.808 209.38 114.34 210.584 115.32 211.396C116.16 212.068 117.196 212.432 118.456 212.432C119.884 212.432 121.032 212.012 121.9 211.2C122.684 210.416 123.104 209.436 123.104 208.26C123.104 207.056 122.712 206.132 121.928 205.46C121.144 204.788 120.08 204.48 118.68 204.48H117.056V202.688H118.596C119.94 202.688 120.948 202.38 121.648 201.792C122.348 201.176 122.712 200.308 122.712 199.188C122.712 198.068 122.348 197.2 121.676 196.584C120.948 195.912 119.912 195.604 118.624 195.604C117.28 195.604 116.244 195.94 115.488 196.668C114.704 197.396 114.256 198.432 114.116 199.776H111.848C112.016 197.844 112.744 196.332 113.976 195.24C115.152 194.148 116.692 193.616 118.596 193.616ZM137.849 193.616H140.089V201.904C140.593 200.98 141.265 200.28 142.105 199.804C142.889 199.356 143.757 199.132 144.737 199.132C146.417 199.132 147.733 199.608 148.629 200.616C149.525 201.596 149.973 203.024 149.973 204.872V214H147.733V205.208C147.733 203.864 147.397 202.828 146.781 202.1C146.109 201.372 145.185 201.008 143.981 201.008C142.861 201.008 141.937 201.456 141.209 202.352C140.453 203.248 140.089 204.396 140.089 205.74V214H137.849V193.616ZM159.876 199.132C162.032 199.132 163.768 199.86 165.056 201.372C166.288 202.8 166.904 204.592 166.904 206.776C166.904 208.932 166.288 210.724 165.084 212.124C163.768 213.636 162.032 214.392 159.876 214.392C157.692 214.392 155.984 213.636 154.696 212.124C153.464 210.724 152.848 208.932 152.848 206.776C152.848 204.592 153.464 202.8 154.696 201.372C155.984 199.86 157.692 199.132 159.876 199.132ZM159.876 201.008C158.336 201.008 157.132 201.596 156.292 202.772C155.508 203.836 155.144 205.152 155.144 206.776C155.144 208.372 155.508 209.688 156.292 210.752C157.132 211.928 158.336 212.516 159.876 212.516C161.388 212.516 162.592 211.928 163.488 210.752C164.244 209.688 164.636 208.344 164.636 206.776C164.636 205.152 164.244 203.836 163.488 202.772C162.592 201.596 161.388 201.008 159.876 201.008ZM169.814 199.524H172.054V208.372C172.054 209.744 172.334 210.78 172.922 211.452C173.51 212.124 174.462 212.488 175.778 212.488C176.73 212.488 177.598 212.096 178.354 211.368C179.138 210.584 179.614 209.576 179.782 208.344V199.524H182.022V214H179.782V211.76C178.606 213.496 177.038 214.392 175.078 214.392C171.55 214.392 169.814 212.404 169.814 208.484V199.524ZM191.838 199.132C192.622 199.132 193.294 199.244 193.826 199.468V201.708C193.098 201.484 192.37 201.4 191.67 201.4C190.55 201.4 189.598 201.876 188.842 202.884C188.058 203.836 187.694 204.984 187.694 206.328V214H185.482V199.524H187.694V202.044C188.086 201.204 188.59 200.532 189.206 200.056C189.962 199.44 190.83 199.132 191.838 199.132ZM200.833 199.132C204.417 199.132 206.377 200.616 206.769 203.64H204.585C204.389 202.744 204.025 202.072 203.465 201.68C202.849 201.232 201.953 201.008 200.805 201.008C199.797 201.008 199.013 201.176 198.453 201.568C197.837 201.932 197.529 202.436 197.529 203.08C197.529 203.696 197.921 204.228 198.761 204.648C199.293 204.9 200.301 205.208 201.757 205.6C203.493 206.02 204.725 206.468 205.481 206.944C206.629 207.672 207.217 208.652 207.217 209.912C207.217 212.88 205.173 214.392 201.085 214.392C197.277 214.392 195.205 212.712 194.869 209.38H197.053C197.221 210.528 197.641 211.34 198.257 211.844C198.873 212.292 199.797 212.516 201.029 212.516C203.605 212.516 204.921 211.676 204.921 210.052C204.921 209.24 204.445 208.624 203.549 208.176C203.073 207.952 202.037 207.644 200.469 207.252C198.761 206.832 197.557 206.412 196.885 205.964C195.765 205.292 195.233 204.368 195.233 203.136C195.233 201.904 195.765 200.952 196.857 200.224C197.865 199.496 199.209 199.132 200.833 199.132ZM224.294 199.132C227.878 199.132 229.838 200.616 230.23 203.64H228.046C227.85 202.744 227.486 202.072 226.926 201.68C226.31 201.232 225.414 201.008 224.266 201.008C223.258 201.008 222.474 201.176 221.914 201.568C221.298 201.932 220.99 202.436 220.99 203.08C220.99 203.696 221.382 204.228 222.222 204.648C222.754 204.9 223.762 205.208 225.218 205.6C226.954 206.02 228.186 206.468 228.942 206.944C230.09 207.672 230.678 208.652 230.678 209.912C230.678 212.88 228.634 214.392 224.546 214.392C220.738 214.392 218.666 212.712 218.33 209.38H220.514C220.682 210.528 221.102 211.34 221.718 211.844C222.334 212.292 223.258 212.516 224.49 212.516C227.066 212.516 228.382 211.676 228.382 210.052C228.382 209.24 227.906 208.624 227.01 208.176C226.534 207.952 225.498 207.644 223.93 207.252C222.222 206.832 221.018 206.412 220.346 205.964C219.226 205.292 218.694 204.368 218.694 203.136C218.694 201.904 219.226 200.952 220.318 200.224C221.326 199.496 222.67 199.132 224.294 199.132ZM239.27 199.132C241.594 199.132 243.358 199.916 244.534 201.484C245.598 202.884 246.158 204.872 246.214 207.392H234.79C234.902 209.016 235.322 210.276 236.106 211.172C236.89 212.068 237.982 212.516 239.354 212.516C240.53 212.516 241.51 212.208 242.238 211.62C242.854 211.116 243.33 210.36 243.694 209.352H245.934C245.598 210.752 244.954 211.872 243.974 212.768C242.77 213.832 241.23 214.392 239.354 214.392C237.282 214.392 235.602 213.692 234.37 212.348C233.082 210.948 232.466 209.1 232.466 206.748C232.466 204.62 233.054 202.828 234.286 201.4C235.518 199.888 237.17 199.132 239.27 199.132ZM239.326 201.008C238.038 201.008 237.002 201.428 236.218 202.268C235.434 203.108 234.986 204.228 234.846 205.656H243.89C243.61 202.548 242.07 201.008 239.326 201.008ZM253.962 199.132C257.546 199.132 259.506 200.616 259.898 203.64H257.714C257.518 202.744 257.154 202.072 256.594 201.68C255.978 201.232 255.082 201.008 253.934 201.008C252.926 201.008 252.142 201.176 251.582 201.568C250.966 201.932 250.658 202.436 250.658 203.08C250.658 203.696 251.05 204.228 251.89 204.648C252.422 204.9 253.43 205.208 254.886 205.6C256.622 206.02 257.854 206.468 258.61 206.944C259.758 207.672 260.346 208.652 260.346 209.912C260.346 212.88 258.302 214.392 254.214 214.392C250.406 214.392 248.334 212.712 247.998 209.38H250.182C250.35 210.528 250.77 211.34 251.386 211.844C252.002 212.292 252.926 212.516 254.158 212.516C256.734 212.516 258.05 211.676 258.05 210.052C258.05 209.24 257.574 208.624 256.678 208.176C256.202 207.952 255.166 207.644 253.598 207.252C251.89 206.832 250.686 206.412 250.014 205.964C248.894 205.292 248.362 204.368 248.362 203.136C248.362 201.904 248.894 200.952 249.986 200.224C250.994 199.496 252.338 199.132 253.962 199.132ZM268.098 199.132C271.682 199.132 273.642 200.616 274.034 203.64H271.85C271.654 202.744 271.29 202.072 270.73 201.68C270.114 201.232 269.218 201.008 268.07 201.008C267.062 201.008 266.278 201.176 265.718 201.568C265.102 201.932 264.794 202.436 264.794 203.08C264.794 203.696 265.186 204.228 266.026 204.648C266.558 204.9 267.566 205.208 269.022 205.6C270.758 206.02 271.99 206.468 272.746 206.944C273.894 207.672 274.482 208.652 274.482 209.912C274.482 212.88 272.438 214.392 268.35 214.392C264.542 214.392 262.47 212.712 262.134 209.38H264.318C264.486 210.528 264.906 211.34 265.522 211.844C266.138 212.292 267.062 212.516 268.294 212.516C270.87 212.516 272.186 211.676 272.186 210.052C272.186 209.24 271.71 208.624 270.814 208.176C270.338 207.952 269.302 207.644 267.734 207.252C266.026 206.832 264.822 206.412 264.15 205.964C263.03 205.292 262.498 204.368 262.498 203.136C262.498 201.904 263.03 200.952 264.122 200.224C265.13 199.496 266.474 199.132 268.098 199.132ZM278.959 194.064C279.435 194.064 279.827 194.204 280.163 194.54C280.499 194.82 280.667 195.212 280.667 195.716C280.667 196.192 280.499 196.584 280.163 196.92C279.827 197.228 279.435 197.396 278.959 197.396C278.483 197.396 278.091 197.228 277.755 196.92C277.419 196.584 277.279 196.192 277.279 195.716C277.279 195.212 277.419 194.82 277.755 194.54C278.091 194.204 278.483 194.064 278.959 194.064ZM277.839 199.524H280.079V214H277.839V199.524ZM290.743 199.132C292.899 199.132 294.635 199.86 295.923 201.372C297.155 202.8 297.771 204.592 297.771 206.776C297.771 208.932 297.155 210.724 295.951 212.124C294.635 213.636 292.899 214.392 290.743 214.392C288.559 214.392 286.851 213.636 285.563 212.124C284.331 210.724 283.715 208.932 283.715 206.776C283.715 204.592 284.331 202.8 285.563 201.372C286.851 199.86 288.559 199.132 290.743 199.132ZM290.743 201.008C289.203 201.008 287.999 201.596 287.159 202.772C286.375 203.836 286.011 205.152 286.011 206.776C286.011 208.372 286.375 209.688 287.159 210.752C287.999 211.928 289.203 212.516 290.743 212.516C292.255 212.516 293.459 211.928 294.355 210.752C295.111 209.688 295.503 208.344 295.503 206.776C295.503 205.152 295.111 203.836 294.355 202.772C293.459 201.596 292.255 201.008 290.743 201.008ZM307.457 199.132C311.041 199.132 312.861 201.12 312.861 205.096V214H310.621V205.264C310.621 202.436 309.333 201.036 306.813 201.036C305.805 201.036 304.937 201.4 304.209 202.128C303.425 202.912 303.005 203.948 302.921 205.264V214H300.681V199.524H302.921V201.652C303.425 200.84 304.069 200.224 304.853 199.804C305.637 199.356 306.505 199.132 307.457 199.132Z" fill="#213A6C"/>
<path d="M811.66 156.32C815.8 156.32 819.22 157.52 821.92 159.92C824.56 162.32 825.88 165.38 825.88 169.22C825.88 172.94 824.44 176.3 821.68 179.36C820 181.16 817 183.44 812.8 186.26C808.42 189.14 805.78 191.66 804.82 193.82H825.94V200H796.06C796.06 195.62 797.44 191.84 800.32 188.6C801.88 186.8 805.18 184.16 810.16 180.74C812.92 178.82 814.84 177.2 816.04 175.94C817.9 173.84 818.86 171.56 818.86 169.16C818.86 166.82 818.2 165.08 817 163.94C815.74 162.8 813.88 162.26 811.42 162.26C808.78 162.26 806.8 163.16 805.48 164.96C804.16 166.64 803.44 169.22 803.32 172.58H796.3C796.36 167.78 797.74 163.94 800.5 161C803.32 157.88 807.04 156.32 811.66 156.32Z" fill="white"/>
<path d="M811.42 347.32C815.74 347.32 819.28 348.34 821.92 350.44C824.5 352.54 825.82 355.42 825.82 359.14C825.82 363.82 823.42 366.94 818.68 368.5C821.2 369.28 823.18 370.42 824.5 371.98C825.94 373.6 826.66 375.7 826.66 378.22C826.66 382.18 825.28 385.42 822.52 387.94C819.64 390.52 815.86 391.84 811.18 391.84C806.74 391.84 803.14 390.7 800.44 388.42C797.44 385.9 795.76 382.18 795.4 377.38H802.54C802.66 380.14 803.5 382.3 805.18 383.8C806.68 385.18 808.66 385.9 811.12 385.9C813.82 385.9 815.98 385.12 817.54 383.62C818.92 382.24 819.64 380.56 819.64 378.52C819.64 376.06 818.86 374.26 817.42 373.12C815.98 371.92 813.88 371.38 811.12 371.38H808.12V366.1H811.12C813.64 366.1 815.56 365.56 816.88 364.48C818.14 363.4 818.8 361.78 818.8 359.68C818.8 357.58 818.2 356.02 817.06 354.94C815.8 353.86 813.94 353.32 811.48 353.32C808.96 353.32 807.04 353.92 805.66 355.18C804.22 356.44 803.38 358.36 803.14 360.94H796.24C796.6 356.62 798.16 353.26 801.04 350.86C803.74 348.46 807.22 347.32 811.42 347.32Z" fill="white"/>
<path d="M611.08 348.16H617.5V376.24H623.86V381.82H617.5V391H610.84V381.82H590.14V375.16L611.08 348.16ZM610.66 357.04L595.84 376.24H610.84V357.04H610.66Z" fill="white"/>
<rect x="654" y="539" width="117" height="36" rx="10" fill="#F1DDE2"/>
<path d="M663.652 551.576H671.3V552.712H664.964V556.552H670.964V557.688H664.964V563H663.652V551.576ZM676.326 554.504C677.51 554.504 678.374 554.808 678.95 555.432C679.43 555.976 679.686 556.728 679.686 557.688V563H678.486V561.608C678.166 562.056 677.734 562.424 677.222 562.712C676.614 563.048 675.926 563.224 675.158 563.224C674.326 563.224 673.67 563.016 673.174 562.6C672.662 562.168 672.406 561.608 672.406 560.936C672.406 559.992 672.774 559.288 673.542 558.808C674.214 558.36 675.174 558.12 676.422 558.104L678.406 558.072V557.64C678.406 556.248 677.686 555.56 676.246 555.56C675.638 555.56 675.142 555.672 674.758 555.928C674.326 556.184 674.054 556.584 673.926 557.112L672.662 557.016C672.838 556.152 673.27 555.496 673.942 555.08C674.55 554.696 675.334 554.504 676.326 554.504ZM678.406 559.032L676.502 559.064C674.646 559.096 673.718 559.704 673.718 560.904C673.718 561.288 673.862 561.592 674.182 561.848C674.502 562.088 674.918 562.216 675.43 562.216C676.214 562.216 676.902 561.96 677.51 561.448C678.102 560.952 678.406 560.376 678.406 559.736V559.032ZM685.28 554.504C686.544 554.504 687.408 555.016 687.872 556.072C688.192 555.528 688.576 555.128 689.024 554.888C689.424 554.632 689.904 554.504 690.48 554.504C691.344 554.504 692.032 554.776 692.576 555.32C693.088 555.88 693.36 556.632 693.36 557.576V563H692.08V557.784C692.08 557.048 691.92 556.504 691.616 556.152C691.296 555.768 690.784 555.592 690.08 555.592C689.536 555.592 689.072 555.784 688.72 556.2C688.336 556.616 688.16 557.144 688.16 557.816V563H686.88V557.784C686.88 556.312 686.24 555.592 684.976 555.592C684.384 555.592 683.904 555.816 683.52 556.296C683.136 556.744 682.944 557.304 682.944 557.96V563H681.664V554.728H682.944V555.832C683.568 554.936 684.352 554.504 685.28 554.504ZM696.407 551.608C696.679 551.608 696.903 551.688 697.095 551.88C697.287 552.04 697.383 552.264 697.383 552.552C697.383 552.824 697.287 553.048 697.095 553.24C696.903 553.416 696.679 553.512 696.407 553.512C696.135 553.512 695.911 553.416 695.719 553.24C695.527 553.048 695.447 552.824 695.447 552.552C695.447 552.264 695.527 552.04 695.719 551.88C695.911 551.688 696.135 551.608 696.407 551.608ZM695.767 554.728H697.047V563H695.767V554.728ZM699.701 551.352H700.965V563H699.701V551.352ZM702.299 554.728H703.691L706.219 561.256L708.667 554.728H710.075L705.547 566.168H704.155L705.579 562.808L702.299 554.728ZM716.636 551.576H718.012L724.476 560.872H724.524V551.576H725.836V563H724.492L717.996 553.608H717.948V563H716.636V551.576ZM731.384 554.504C732.712 554.504 733.72 554.952 734.392 555.848C735 556.648 735.32 557.784 735.352 559.224H728.824C728.888 560.152 729.128 560.872 729.576 561.384C730.024 561.896 730.648 562.152 731.432 562.152C732.104 562.152 732.664 561.976 733.08 561.64C733.432 561.352 733.704 560.92 733.912 560.344H735.192C735 561.144 734.632 561.784 734.072 562.296C733.384 562.904 732.504 563.224 731.432 563.224C730.248 563.224 729.288 562.824 728.584 562.056C727.848 561.256 727.496 560.2 727.496 558.856C727.496 557.64 727.832 556.616 728.536 555.8C729.24 554.936 730.184 554.504 731.384 554.504ZM731.416 555.576C730.68 555.576 730.088 555.816 729.64 556.296C729.192 556.776 728.936 557.416 728.856 558.232H734.024C733.864 556.456 732.984 555.576 731.416 555.576ZM740.259 554.504C741.587 554.504 742.595 554.952 743.267 555.848C743.875 556.648 744.195 557.784 744.227 559.224H737.699C737.763 560.152 738.003 560.872 738.451 561.384C738.899 561.896 739.523 562.152 740.307 562.152C740.979 562.152 741.539 561.976 741.955 561.64C742.307 561.352 742.579 560.92 742.787 560.344H744.067C743.875 561.144 743.507 561.784 742.947 562.296C742.259 562.904 741.379 563.224 740.307 563.224C739.123 563.224 738.163 562.824 737.459 562.056C736.723 561.256 736.371 560.2 736.371 558.856C736.371 557.64 736.707 556.616 737.411 555.8C738.115 554.936 739.059 554.504 740.259 554.504ZM740.291 555.576C739.555 555.576 738.963 555.816 738.515 556.296C738.067 556.776 737.811 557.416 737.731 558.232H742.899C742.739 556.456 741.859 555.576 740.291 555.576ZM751.838 551.352H753.118V563H751.918V561.64C751.342 562.696 750.414 563.224 749.166 563.224C747.95 563.224 747.006 562.776 746.334 561.912C745.71 561.112 745.406 560.088 745.406 558.84C745.406 557.624 745.71 556.632 746.334 555.832C747.006 554.936 747.918 554.504 749.102 554.504C750.286 554.504 751.198 555.08 751.838 556.248V551.352ZM749.374 555.56C748.462 555.56 747.774 555.88 747.326 556.52C746.91 557.08 746.718 557.848 746.718 558.84C746.718 559.832 746.91 560.616 747.31 561.192C747.758 561.832 748.43 562.168 749.326 562.168C750.158 562.168 750.798 561.848 751.262 561.208C751.662 560.632 751.87 559.88 751.87 558.952V558.792C751.87 557.832 751.63 557.048 751.182 556.456C750.718 555.848 750.11 555.56 749.374 555.56ZM758.029 554.504C760.077 554.504 761.197 555.352 761.421 557.08H760.173C760.061 556.568 759.853 556.184 759.533 555.96C759.181 555.704 758.669 555.576 758.013 555.576C757.437 555.576 756.989 555.672 756.669 555.896C756.317 556.104 756.141 556.392 756.141 556.76C756.141 557.112 756.365 557.416 756.845 557.656C757.149 557.8 757.725 557.976 758.557 558.2C759.549 558.44 760.253 558.696 760.685 558.968C761.341 559.384 761.677 559.944 761.677 560.664C761.677 562.36 760.509 563.224 758.173 563.224C755.997 563.224 754.813 562.264 754.621 560.36H755.869C755.965 561.016 756.205 561.48 756.557 561.768C756.909 562.024 757.437 562.152 758.141 562.152C759.613 562.152 760.365 561.672 760.365 560.744C760.365 560.28 760.093 559.928 759.581 559.672C759.309 559.544 758.717 559.368 757.821 559.144C756.845 558.904 756.157 558.664 755.773 558.408C755.133 558.024 754.829 557.496 754.829 556.792C754.829 556.088 755.133 555.544 755.757 555.128C756.333 554.712 757.101 554.504 758.029 554.504Z" fill="#D10532"/>
<rect x="654" width="106" height="39" rx="10" fill="#F1DDE2"/>
<path d="M678.08 12.896C679.268 12.896 680.24 13.238 681.014 13.922C681.77 14.606 682.166 15.524 682.166 16.64C682.166 17.756 681.734 18.764 680.906 19.664C680.456 20.132 679.574 20.834 678.242 21.734C676.604 22.832 675.668 23.822 675.434 24.686H682.184V26H673.616C673.616 24.83 674.03 23.768 674.894 22.814C675.398 22.238 676.316 21.464 677.684 20.528C678.692 19.808 679.358 19.286 679.7 18.926C680.348 18.224 680.69 17.45 680.69 16.622C680.69 15.83 680.456 15.236 679.988 14.804C679.52 14.372 678.854 14.156 678.026 14.156C677.144 14.156 676.46 14.444 675.992 15.056C675.488 15.632 675.218 16.496 675.2 17.63H673.724C673.724 16.19 674.138 15.038 674.93 14.192C675.722 13.328 676.784 12.896 678.08 12.896ZM689.377 16.694H690.961L693.247 24.236L695.407 16.694H696.757L698.917 24.236L701.203 16.694H702.787L699.619 26H698.251L696.091 18.512L693.895 26H692.545L689.377 16.694ZM707.825 16.442C709.319 16.442 710.453 16.946 711.209 17.954C711.893 18.854 712.253 20.132 712.289 21.752H704.945C705.017 22.796 705.287 23.606 705.791 24.182C706.295 24.758 706.997 25.046 707.879 25.046C708.635 25.046 709.265 24.848 709.733 24.47C710.129 24.146 710.435 23.66 710.669 23.012H712.109C711.893 23.912 711.479 24.632 710.849 25.208C710.075 25.892 709.085 26.252 707.879 26.252C706.547 26.252 705.467 25.802 704.675 24.938C703.847 24.038 703.451 22.85 703.451 21.338C703.451 19.97 703.829 18.818 704.621 17.9C705.413 16.928 706.475 16.442 707.825 16.442ZM707.861 17.648C707.033 17.648 706.367 17.918 705.863 18.458C705.359 18.998 705.071 19.718 704.981 20.636H710.795C710.615 18.638 709.625 17.648 707.861 17.648ZM717.809 16.442C719.303 16.442 720.437 16.946 721.193 17.954C721.877 18.854 722.237 20.132 722.273 21.752H714.929C715.001 22.796 715.271 23.606 715.775 24.182C716.279 24.758 716.981 25.046 717.863 25.046C718.619 25.046 719.249 24.848 719.717 24.47C720.113 24.146 720.419 23.66 720.653 23.012H722.093C721.877 23.912 721.463 24.632 720.833 25.208C720.059 25.892 719.069 26.252 717.863 26.252C716.531 26.252 715.451 25.802 714.659 24.938C713.831 24.038 713.435 22.85 713.435 21.338C713.435 19.97 713.813 18.818 714.605 17.9C715.397 16.928 716.459 16.442 717.809 16.442ZM717.845 17.648C717.017 17.648 716.351 17.918 715.847 18.458C715.343 18.998 715.055 19.718 714.965 20.636H720.779C720.599 18.638 719.609 17.648 717.845 17.648ZM723.96 12.896H725.4V21.014L730.062 16.694H731.97L727.866 20.438L732.366 26H730.512L726.876 21.374L725.4 22.706V26H723.96V12.896ZM736.781 16.442C739.085 16.442 740.345 17.396 740.597 19.34H739.193C739.067 18.764 738.833 18.332 738.473 18.08C738.077 17.792 737.501 17.648 736.763 17.648C736.115 17.648 735.611 17.756 735.251 18.008C734.855 18.242 734.657 18.566 734.657 18.98C734.657 19.376 734.909 19.718 735.449 19.988C735.791 20.15 736.439 20.348 737.375 20.6C738.491 20.87 739.283 21.158 739.769 21.464C740.507 21.932 740.885 22.562 740.885 23.372C740.885 25.28 739.571 26.252 736.943 26.252C734.495 26.252 733.163 25.172 732.947 23.03H734.351C734.459 23.768 734.729 24.29 735.125 24.614C735.521 24.902 736.115 25.046 736.907 25.046C738.563 25.046 739.409 24.506 739.409 23.462C739.409 22.94 739.103 22.544 738.527 22.256C738.221 22.112 737.555 21.914 736.547 21.662C735.449 21.392 734.675 21.122 734.243 20.834C733.523 20.402 733.181 19.808 733.181 19.016C733.181 18.224 733.523 17.612 734.225 17.144C734.873 16.676 735.737 16.442 736.781 16.442Z" fill="#D10532"/>
</svg>
