<svg width="40" height="40" viewBox="0 0 40 40" fill="none" xmlns="http://www.w3.org/2000/svg">
<mask id="mask0_345_90" style="mask-type:alpha" maskUnits="userSpaceOnUse" x="0" y="0" width="40" height="40">
<rect width="40" height="40" fill="#D9D9D9"/>
</mask>
<g mask="url(#mask0_345_90)">
<path d="M28 35L27.5 32.5C27.1667 32.3611 26.8542 32.2153 26.5625 32.0625C26.2708 31.9097 25.9722 31.7222 25.6667 31.5L23.25 32.25L21.5833 29.4167L23.5 27.75C23.4444 27.4167 23.4167 27.0556 23.4167 26.6667C23.4167 26.2778 23.4444 25.9167 23.5 25.5833L21.5833 23.9167L23.25 21.0833L25.6667 21.8333C25.9722 21.6111 26.2708 21.4236 26.5625 21.2708C26.8542 21.1181 27.1667 20.9722 27.5 20.8333L28 18.3333H31.3333L31.8333 20.8333C32.1667 20.9722 32.4792 21.1181 32.7708 21.2708C33.0625 21.4236 33.3611 21.6111 33.6667 21.8333L36.0833 21.0833L37.75 23.9167L35.8333 25.5833C35.8889 25.9167 35.9167 26.2778 35.9167 26.6667C35.9167 27.0556 35.8889 27.4167 35.8333 27.75L37.75 29.4167L36.0833 32.25L33.6667 31.5C33.3611 31.7222 33.0625 31.9097 32.7708 32.0625C32.4792 32.2153 32.1667 32.3611 31.8333 32.5L31.3333 35H28ZM29.6667 30C30.5833 30 31.3681 29.6736 32.0208 29.0208C32.6736 28.3681 33 27.5833 33 26.6667C33 25.75 32.6736 24.9653 32.0208 24.3125C31.3681 23.6597 30.5833 23.3333 29.6667 23.3333C28.75 23.3333 27.9653 23.6597 27.3125 24.3125C26.6597 24.9653 26.3333 25.75 26.3333 26.6667C26.3333 27.5833 26.6597 28.3681 27.3125 29.0208C27.9653 29.6736 28.75 30 29.6667 30ZM6.33333 28.3333V8.33333V15.5V15V28.3333ZM6.33333 31.6667C5.41667 31.6667 4.63194 31.3403 3.97917 30.6875C3.32639 30.0347 3 29.25 3 28.3333V8.33333C3 7.41667 3.32639 6.63194 3.97917 5.97917C4.63194 5.32639 5.41667 5 6.33333 5H16.3333L19.6667 8.33333H33C33.9167 8.33333 34.7014 8.65972 35.3542 9.3125C36.0069 9.96528 36.3333 10.75 36.3333 11.6667V17.125C35.8333 16.7639 35.3056 16.4514 34.75 16.1875C34.1944 15.9236 33.6111 15.6944 33 15.5V11.6667H18.2917L14.9583 8.33333H6.33333V28.3333H18.125C18.2083 28.9167 18.3403 29.4861 18.5208 30.0417C18.7014 30.5972 18.9167 31.1389 19.1667 31.6667H6.33333Z" fill="#1C1B1F"/>
</g>
</svg>
